<svg width="156" height="155" viewBox="0 0 156 155" fill="none" xmlns="http://www.w3.org/2000/svg">
<path d="M70.2624 147.268L69.5105 152.49L67.3583 152.182C66.9972 152.13 66.6872 152.022 66.4287 151.856C66.1653 151.69 65.9721 151.472 65.8482 151.201C65.7243 150.93 65.6888 150.613 65.7412 150.248C65.7923 149.893 65.9184 149.601 66.1187 149.373C66.3186 149.148 66.5655 148.993 66.8604 148.907L65.9646 146.654L67.1881 146.829L67.9782 148.873L68.8994 149.005L69.1721 147.112L70.2624 147.268ZM68.7635 149.951L67.694 149.798C67.4644 149.765 67.2721 149.805 67.1171 149.916C66.9576 150.027 66.8626 150.19 66.8315 150.405C66.8 150.624 66.8448 150.81 66.967 150.96C67.0842 151.11 67.2574 151.202 67.4875 151.235L68.5565 151.388L68.7635 149.951Z" fill="white"/>
<path d="M62.918 146.046L61.6442 151.166L58.1885 150.313L58.4194 149.385L60.8062 149.974L61.0948 148.812L58.8462 148.257L59.0772 147.329L61.3258 147.885L61.618 146.71L59.2313 146.12L59.4693 145.194L62.918 146.046Z" fill="white"/>
<path d="M56.9479 144.458L53.5072 148.852L52.1309 148.376L52.1615 142.803L53.2625 143.184L53.2438 144.317L55.1571 144.978L55.8469 144.078L56.9479 144.458ZM54.5473 145.779L53.2247 145.322L53.179 147.569L54.5473 145.779Z" fill="white"/>
<path d="M50.8352 142.219L48.6368 147.018L47.0659 146.303C46.5445 146.066 46.139 145.757 45.8499 145.376C45.5607 144.996 45.3933 144.577 45.3471 144.12C45.3014 143.664 45.3849 143.203 45.5971 142.74C45.8094 142.276 46.1052 141.909 46.4836 141.64C46.8598 141.376 47.2871 141.227 47.7649 141.196C48.2428 141.164 48.7429 141.267 49.2643 141.505L50.8352 142.219ZM49.4349 142.633L48.8402 142.362C48.5253 142.219 48.2255 142.158 47.9399 142.178C47.6526 142.203 47.3941 142.301 47.1649 142.472C46.9295 142.645 46.7408 142.886 46.5991 143.195C46.4556 143.509 46.3961 143.809 46.4214 144.095C46.4419 144.38 46.5378 144.636 46.7092 144.864C46.8807 145.093 47.1236 145.278 47.4381 145.422L48.0332 145.692L49.4349 142.633Z" fill="white"/>
<path d="M39.3393 135.932C39.673 136.148 39.9456 136.406 40.1568 136.706C40.3681 137.006 40.5139 137.328 40.5944 137.673C40.6682 138.019 40.6745 138.369 40.6131 138.724C40.5517 139.078 40.4153 139.417 40.2037 139.742C39.9922 140.067 39.7385 140.33 39.4427 140.533C39.1429 140.733 38.8207 140.868 38.4759 140.937C38.1273 141.004 37.7724 141.003 37.4116 140.932C37.0507 140.862 36.7014 140.718 36.3636 140.499C36.0259 140.281 35.7514 140.021 35.5401 139.722C35.3288 139.422 35.185 139.101 35.1085 138.759C35.0281 138.414 35.0206 138.066 35.0859 137.714C35.1473 137.36 35.2838 137.021 35.4953 136.696C35.7068 136.371 35.9625 136.109 36.2623 135.909C36.5621 135.709 36.8876 135.573 37.2389 135.502C37.5836 135.432 37.9364 135.433 38.2973 135.503C38.6582 135.574 39.0055 135.717 39.3393 135.932ZM38.7976 136.764C38.5274 136.589 38.245 136.494 37.9505 136.478C37.6494 136.463 37.3663 136.525 37.1013 136.663C36.8322 136.798 36.6048 137.008 36.4191 137.293C36.2334 137.579 36.1331 137.871 36.1184 138.171C36.0997 138.469 36.1596 138.749 36.2982 139.013C36.4328 139.275 36.6352 139.493 36.9053 139.668C37.1755 139.843 37.4599 139.939 37.7584 139.958C38.0529 139.974 38.3347 139.914 38.6037 139.779C38.8688 139.641 39.0942 139.429 39.2799 139.144C39.4657 138.859 39.5679 138.568 39.5866 138.27C39.6014 137.97 39.5427 137.688 39.4107 137.422C39.2721 137.158 39.0677 136.939 38.7976 136.764Z" fill="white"/>
<path d="M30.2461 135.885L29.3828 135.204L31.4217 132.64C31.6658 132.333 31.9571 132.111 32.2953 131.975C32.6335 131.838 32.988 131.799 33.359 131.857C33.7262 131.912 34.0806 132.074 34.4222 132.344C34.7601 132.611 34.9998 132.917 35.1413 133.264C35.2827 133.611 35.3254 133.963 35.2694 134.323C35.2134 134.682 35.0633 135.015 34.8191 135.322L32.7803 137.886L31.917 137.205L33.9558 134.641C34.1618 134.382 34.2519 134.113 34.2261 133.833C34.1938 133.555 34.0532 133.317 33.8044 133.121C33.5519 132.922 33.2878 132.839 33.012 132.875C32.7332 132.914 32.4909 133.062 32.285 133.322L30.2461 135.885Z" fill="white"/>
<path d="M31.0138 129.564L27.3865 133.406L25.8027 131.922C25.537 131.672 25.3462 131.406 25.2302 131.122C25.1109 130.836 25.0785 130.546 25.1332 130.254C25.1879 129.962 25.3419 129.681 25.5951 129.413C25.8418 129.152 26.1131 128.985 26.4092 128.913C26.702 128.844 26.994 128.858 27.2852 128.956L27.8514 126.6L28.752 127.444L28.2189 129.569L28.897 130.205L30.2116 128.812L31.0138 129.564ZM28.2397 130.901L27.453 130.163C27.2839 130.005 27.1038 129.927 26.9129 129.929C26.7185 129.928 26.5466 130.007 26.3973 130.165C26.2448 130.327 26.1748 130.504 26.1874 130.698C26.1966 130.888 26.2858 131.062 26.4548 131.221L27.2416 131.958L28.2397 130.901Z" fill="white"/>
<path d="M23.7337 121.721C23.9553 121.992 24.1141 122.283 24.2102 122.595C24.3064 122.906 24.337 123.217 24.3021 123.525C24.2673 123.833 24.1657 124.12 23.9972 124.385L23.0775 123.945C23.2353 123.652 23.3021 123.36 23.278 123.069C23.2508 122.774 23.1549 122.526 22.9902 122.325C22.8196 122.116 22.6442 121.988 22.4639 121.939C22.2837 121.891 22.133 121.916 22.0118 122.015C21.9053 122.101 21.8493 122.204 21.8438 122.325C21.8346 122.448 21.861 122.585 21.9231 122.735L22.3413 123.784C22.5156 124.221 22.5742 124.603 22.5174 124.929C22.4568 125.259 22.2907 125.534 22.019 125.754C21.773 125.954 21.5106 126.067 21.2319 126.093C20.9466 126.117 20.6627 126.062 20.3803 125.926C20.0978 125.789 19.8354 125.573 19.5929 125.277C19.3774 125.014 19.2272 124.737 19.1423 124.446C19.0538 124.159 19.0256 123.874 19.0578 123.592C19.0833 123.31 19.167 123.05 19.3091 122.813L20.2288 123.253C20.0911 123.481 20.0297 123.719 20.0446 123.969C20.0595 124.219 20.1568 124.453 20.3364 124.673C20.4891 124.86 20.654 124.975 20.8313 125.02C21.0085 125.065 21.1614 125.035 21.2899 124.931C21.4845 124.772 21.5133 124.524 21.3762 124.184L20.9649 123.167C20.7899 122.736 20.7258 122.359 20.7723 122.035C20.8189 121.711 20.9835 121.434 21.2662 121.204C21.5122 121.004 21.7794 120.894 22.0677 120.873C22.3531 120.848 22.64 120.907 22.9284 121.051C23.2168 121.194 23.4853 121.417 23.7337 121.721Z" fill="white"/>
<path d="M20.579 117.648L17.0074 120.095L17.7683 121.198L16.9779 121.739L14.8398 118.641L15.6303 118.1L16.3833 119.19L19.9549 116.743L20.579 117.648Z" fill="white"/>
<path d="M17.0425 111.809C17.2394 112.154 17.3625 112.508 17.4119 112.871C17.4613 113.234 17.4422 113.587 17.3547 113.93C17.2608 114.271 17.1049 114.585 16.887 114.872C16.6692 115.158 16.3914 115.397 16.0539 115.589C15.7163 115.78 15.3694 115.898 15.0133 115.943C14.6548 115.983 14.3064 115.956 13.968 115.859C13.6274 115.759 13.313 115.596 13.0249 115.368C12.7367 115.14 12.493 114.852 12.2937 114.504C12.0945 114.155 11.9702 113.799 11.9208 113.436C11.8714 113.073 11.8917 112.722 11.9815 112.383C12.069 112.04 12.2229 111.728 12.443 111.445C12.6609 111.158 12.9386 110.92 13.2762 110.728C13.6138 110.536 13.9618 110.42 14.3203 110.38C14.6788 110.339 15.0304 110.368 15.3752 110.466C15.7135 110.562 16.0267 110.723 16.3149 110.951C16.603 111.179 16.8456 111.465 17.0425 111.809ZM16.1779 112.3C16.0185 112.021 15.8117 111.807 15.5576 111.658C15.2969 111.507 15.017 111.432 14.718 111.434C14.4165 111.431 14.1176 111.513 13.8212 111.682C13.5248 111.85 13.3008 112.063 13.1494 112.323C12.9957 112.579 12.9195 112.856 12.9208 113.154C12.9197 113.448 12.9989 113.734 13.1583 114.013C13.3177 114.292 13.5257 114.508 13.7822 114.662C14.0364 114.81 14.3142 114.886 14.6156 114.889C14.9147 114.888 15.2125 114.803 15.5089 114.635C15.8053 114.467 16.0304 114.255 16.1841 114C16.3355 113.74 16.4138 113.461 16.419 113.165C16.4177 112.868 16.3373 112.579 16.1779 112.3Z" fill="white"/>
<path d="M15.1522 108.361L10.3464 110.574L9.43438 108.606C9.28138 108.277 9.20432 107.959 9.20321 107.652C9.2001 107.342 9.27876 107.061 9.43913 106.811C9.59946 106.56 9.84737 106.358 10.1828 106.203C10.5097 106.053 10.824 105.999 11.1257 106.042C11.4232 106.087 11.6886 106.209 11.922 106.408L13.3312 104.434L13.8498 105.552L12.5581 107.324L12.9485 108.167L14.6903 107.365L15.1522 108.361ZM12.0777 108.568L11.6247 107.59C11.5273 107.381 11.3896 107.241 11.2116 107.172C11.0315 107.099 10.8426 107.108 10.6448 107.199C10.4427 107.292 10.3112 107.431 10.2504 107.615C10.1876 107.794 10.2049 107.989 10.3022 108.199L10.7553 109.176L12.0777 108.568Z" fill="white"/>
<path d="M12.5719 102.287L10.4009 103.072L8.19872 105.743L7.77702 104.585L9.1789 102.933L7.04275 102.568L6.62109 101.41L10.0186 102.042L12.1963 101.255L12.5719 102.287Z" fill="white"/>
<path d="M10.0435 94.0137L4.85221 95.0474L4.42601 92.9228C4.35452 92.5666 4.35409 92.2391 4.42474 91.9413C4.49445 91.6386 4.63663 91.3837 4.85127 91.1775C5.06592 90.9708 5.35442 90.8319 5.71674 90.7597C6.06982 90.6894 6.38799 90.7102 6.67135 90.8221C6.95008 90.935 7.17952 91.1155 7.35974 91.3638L9.19252 89.7711L9.43488 90.9792L7.76376 92.4024L7.94621 93.3122L9.82762 92.9374L10.0435 94.0137ZM7.00551 93.4994L6.79379 92.444C6.74831 92.2174 6.64705 92.0497 6.49005 91.9413C6.33212 91.8284 6.1463 91.793 5.93263 91.836C5.7143 91.8793 5.55401 91.9833 5.45182 92.1479C5.34865 92.3081 5.31983 92.5015 5.36535 92.7286L5.57702 93.784L7.00551 93.4994Z" fill="white"/>
<path d="M8.75188 86.7057L3.48269 87.2154L3.13867 83.685L4.0935 83.5925L4.33108 86.0308L5.52637 85.9153L5.30253 83.6177L6.25736 83.5257L6.4812 85.8228L7.69064 85.706L7.45304 83.2677L8.40857 83.1823L8.75188 86.7057Z" fill="white"/>
<path d="M8.26468 80.5691L2.96046 78.8008L2.95215 77.3493L8.23572 75.5208L8.24238 76.6819L7.16431 77.0422L7.1759 79.0596L8.25802 79.4079L8.26468 80.5691ZM6.21481 78.7539L6.20682 77.359L4.0648 78.0648L6.21481 78.7539Z" fill="white"/>
<path d="M8.34747 74.0799L3.07422 73.6139L3.22684 71.9C3.27751 71.3313 3.43473 70.8477 3.6985 70.4489C3.96227 70.0507 4.3026 69.7537 4.71949 69.5581C5.13639 69.363 5.59966 69.2878 6.10929 69.3329C6.61893 69.378 7.06403 69.5334 7.4446 69.7993C7.82047 70.0648 8.10302 70.4166 8.29226 70.8552C8.4815 71.2937 8.55079 71.7973 8.50011 72.3664L8.34747 74.0799ZM7.48928 72.9023L7.54706 72.2536C7.57762 71.9102 7.5356 71.6079 7.42093 71.3468C7.30155 71.0853 7.12292 70.8751 6.88496 70.7167C6.64269 70.5529 6.3517 70.456 6.01194 70.4259C5.66748 70.3958 5.36392 70.4401 5.10126 70.5587C4.839 70.6729 4.62836 70.8485 4.46932 71.0857C4.31028 71.3229 4.21548 71.6132 4.18492 71.9562L4.12713 72.6054L7.48928 72.9023Z" fill="white"/>
<path d="M10.4644 61.1847C10.3713 61.5702 10.2181 61.9122 10.0047 62.2105C9.79139 62.5092 9.53504 62.7535 9.23565 62.9438C8.9328 63.1288 8.60357 63.2509 8.24791 63.3115C7.89226 63.3717 7.52559 63.3567 7.1479 63.2664C6.77022 63.1757 6.43624 63.0252 6.14595 62.815C5.85678 62.5999 5.6218 62.3419 5.44104 62.0415C5.26139 61.7361 5.14463 61.4025 5.09084 61.04C5.03706 60.6776 5.05727 60.301 5.15147 59.9111C5.24567 59.5208 5.39942 59.1765 5.61278 58.8783C5.82614 58.58 6.08196 58.3379 6.38019 58.1521C6.67953 57.9614 7.00649 57.8383 7.36104 57.7826C7.7167 57.7224 8.08337 57.7374 8.46105 57.8277C8.83874 57.9184 9.17219 58.0711 9.46136 58.2862C9.75048 58.5012 9.98725 58.7619 10.1715 59.0681C10.3523 59.3686 10.4696 59.7005 10.5233 60.0629C10.5771 60.4254 10.5575 60.7993 10.4644 61.1847ZM9.49715 60.9528C9.57252 60.6409 9.5687 60.3439 9.48578 60.0616C9.39931 59.774 9.24662 59.5283 9.02762 59.3257C8.80978 59.1181 8.53504 58.9743 8.20341 58.8951C7.87178 58.8154 7.56156 58.8185 7.27279 58.9048C6.98513 58.9862 6.7394 59.1363 6.53568 59.3544C6.33307 59.5682 6.19405 59.831 6.11873 60.143C6.04336 60.455 6.0466 60.7546 6.12841 61.0409C6.21137 61.3232 6.3618 61.568 6.57964 61.7755C6.7986 61.9786 7.07391 62.1198 7.40554 62.1995C7.73717 62.2787 8.04681 62.2778 8.33448 62.1964C8.62329 62.1101 8.87129 61.9609 9.07852 61.7481C9.28224 61.5299 9.42178 61.2648 9.49715 60.9528Z" fill="white"/>
<path d="M7.47836 52.6275L7.83561 51.5894L10.9411 52.6501C11.3131 52.7775 11.62 52.9771 11.8618 53.2493C12.1037 53.5214 12.259 53.8414 12.3277 54.2096C12.398 54.5729 12.3625 54.9596 12.2211 55.3708C12.0813 55.777 11.871 56.104 11.5902 56.3527C11.3094 56.601 10.9897 56.759 10.631 56.8258C10.2724 56.8931 9.90715 56.863 9.5352 56.736L6.42969 55.6748L6.78694 54.6366L9.89245 55.6978C10.2061 55.8049 10.4908 55.8 10.7465 55.6827C10.9993 55.5593 11.1771 55.3482 11.28 55.049C11.3845 54.7455 11.3741 54.4698 11.2489 54.2224C11.1193 53.9737 10.8976 53.7958 10.5839 53.6883L7.47836 52.6275Z" fill="white"/>
<path d="M13.7155 51.241L8.87109 49.1138L9.74802 47.1313C9.89516 46.7985 10.0836 46.5308 10.3133 46.3272C10.545 46.1192 10.8082 45.9926 11.1029 45.9466C11.3976 45.9006 11.7141 45.9519 12.0522 46.1002C12.3816 46.2449 12.63 46.4445 12.7972 46.6985C12.9601 46.9503 13.0437 47.2295 13.0481 47.5357L15.4665 47.2826L14.9678 48.4097L12.7794 48.6173L12.404 49.4661L14.1597 50.2369L13.7155 51.241ZM11.5262 49.0806L11.9618 48.0955C12.0554 47.884 12.0692 47.6889 12.0032 47.5105C11.9392 47.3273 11.8074 47.1923 11.608 47.1047C11.4043 47.0153 11.213 47.0087 11.0343 47.0848C10.8575 47.1569 10.7223 47.2985 10.6287 47.5101L10.1931 48.4951L11.5262 49.0806Z" fill="white"/>
<path d="M18.7112 41.788C18.5288 42.0863 18.3062 42.3326 18.0433 42.5267C17.7805 42.7209 17.4972 42.8531 17.1937 42.9231C16.8902 42.9932 16.5851 42.9932 16.2785 42.9232L16.3887 41.9124C16.7183 41.9631 17.0167 41.9286 17.284 41.8089C17.5537 41.6852 17.7563 41.5125 17.8918 41.2908C18.0323 41.061 18.0954 40.8534 18.0812 40.6678C18.067 40.4824 17.9931 40.3491 17.8596 40.2681C17.7423 40.1969 17.6258 40.1787 17.5102 40.2136C17.3906 40.246 17.2698 40.3164 17.1481 40.4249L16.2949 41.1674C15.9395 41.4767 15.5979 41.659 15.2701 41.7143C14.9382 41.7672 14.6226 41.7028 14.3232 41.5211C14.0521 41.3566 13.8581 41.1477 13.7412 40.8944C13.6226 40.6345 13.5807 40.3493 13.6152 40.0387C13.6498 39.728 13.7668 39.4094 13.9664 39.0829C14.1438 38.7926 14.3558 38.5592 14.6023 38.3828C14.8448 38.2038 15.1048 38.0825 15.3823 38.0187C15.6582 37.9485 15.932 37.9406 16.2038 37.995L16.0935 39.0058C15.8323 38.9522 15.586 38.9741 15.3546 39.0713C15.1232 39.1686 14.9336 39.3382 14.7858 39.5801C14.6601 39.7857 14.6056 39.9792 14.6223 40.1606C14.6389 40.3421 14.7181 40.4758 14.8597 40.5617C15.0741 40.6918 15.3191 40.6359 15.5945 40.3941L16.4207 39.6685C16.7696 39.3607 17.1052 39.1747 17.4273 39.1105C17.7495 39.0462 18.0663 39.1086 18.3779 39.2976C18.649 39.4621 18.8426 39.6763 18.9586 39.9402C19.0772 40.2 19.1166 40.4893 19.0772 40.808C19.0377 41.1267 18.9157 41.4533 18.7112 41.788Z" fill="white"/>
<path d="M21.514 37.4668L18.0081 34.9269L17.2183 36.0093L16.4424 35.4472L18.6613 32.4062L19.4372 32.9683L18.6558 34.0393L22.1618 36.5792L21.514 37.4668Z" fill="white"/>
<path d="M25.8597 32.1991C25.5993 32.499 25.3055 32.7326 24.9784 32.8999C24.6513 33.0673 24.3109 33.167 23.9573 33.1992C23.6031 33.2246 23.2541 33.1827 22.9104 33.0735C22.5667 32.9644 22.2479 32.7832 21.9542 32.5298C21.6605 32.2765 21.4332 31.99 21.2724 31.6702C21.1146 31.3469 21.0248 31.0103 21.0029 30.6606C20.984 30.3072 21.0343 29.9572 21.1536 29.6107C21.273 29.2641 21.4644 28.9391 21.728 28.6358C21.9915 28.3324 22.2868 28.097 22.6139 27.9296C22.941 27.7623 23.2798 27.6643 23.6304 27.6358C23.9841 27.6037 24.3313 27.644 24.6719 27.7568C25.0157 27.8659 25.3344 28.0472 25.6281 28.3005C25.9218 28.5538 26.1476 28.8421 26.3053 29.1654C26.463 29.4887 26.5531 29.8287 26.5755 30.1851C26.5975 30.5349 26.5487 30.8831 26.4294 31.2296C26.31 31.5762 26.1202 31.8994 25.8597 32.1991ZM25.1075 31.5504C25.3183 31.3077 25.4519 31.0422 25.5083 30.7537C25.5642 30.4585 25.5417 30.1706 25.4408 29.8901C25.343 29.606 25.1652 29.3527 24.9073 29.1303C24.6494 28.9079 24.3723 28.7688 24.0761 28.7131C23.783 28.6539 23.4956 28.6745 23.2141 28.775C22.9356 28.872 22.691 29.0418 22.4801 29.2845C22.2694 29.5272 22.1342 29.7946 22.0747 30.0866C22.0183 30.3751 22.039 30.6614 22.1368 30.9455C22.2377 31.2261 22.4171 31.4776 22.675 31.7C22.9329 31.9224 23.2084 32.0633 23.5015 32.1225C23.7978 32.1783 24.0869 32.1591 24.3689 32.0653C24.6505 31.9647 24.8967 31.7931 25.1075 31.5504Z" fill="white"/>
<path d="M28.4928 29.2739L24.7979 25.4964L26.355 23.9842C26.6163 23.7305 26.8916 23.5521 27.181 23.449C27.4739 23.3425 27.7656 23.3229 28.0562 23.3901C28.3468 23.4572 28.621 23.6226 28.8789 23.8863C29.1302 24.1432 29.2858 24.4205 29.3456 24.7184C29.4021 25.0129 29.3749 25.3029 29.264 25.5886L31.6022 26.2544L30.7167 27.1143L28.6092 26.4915L27.9425 27.1389L29.2817 28.5079L28.4928 29.2739ZM27.2729 26.4543L28.0465 25.7032C28.2127 25.5418 28.2987 25.3659 28.3045 25.1758C28.3137 24.9822 28.2423 24.8077 28.0902 24.6522C27.9348 24.4934 27.7599 24.416 27.5655 24.4202C27.3745 24.4211 27.196 24.5023 27.0297 24.6637L26.2562 25.4149L27.2729 26.4543Z" fill="white"/>
<path d="M33.3811 24.8264L31.9151 23.0484L28.6533 21.8698L29.6087 21.0877L31.6386 21.8543L31.2723 19.7258L32.2277 18.9437L32.7616 22.3462L34.2322 24.1297L33.3811 24.8264Z" fill="white"/>
<path d="M40.3665 19.6934L37.6582 15.1609L39.5266 14.0525C39.84 13.8666 40.1495 13.7571 40.4551 13.7242C40.7648 13.6888 41.0531 13.7375 41.3199 13.8704C41.5867 14.0032 41.8147 14.2279 42.0037 14.5442C42.1879 14.8525 42.2742 15.1583 42.2626 15.4619C42.2486 15.7614 42.1542 16.0371 41.9795 16.2891L44.0971 17.4802L43.0347 18.1104L41.1312 17.0148L40.3314 17.4893L41.3129 19.1319L40.3665 19.6934ZM39.8406 16.668L40.7687 16.1174C40.9681 15.999 41.0929 15.8481 41.1431 15.6645C41.1974 15.4785 41.1688 15.2922 41.0573 15.1056C40.9434 14.915 40.7915 14.7991 40.6015 14.758C40.4156 14.7145 40.2229 14.7519 40.0234 14.8702L39.0954 15.4208L39.8406 16.668Z" fill="white"/>
<path d="M46.8525 16.0455L44.6143 11.2652L47.8407 9.76538L48.2462 10.6316L46.018 11.6674L46.5256 12.7518L48.625 11.7759L49.0305 12.6421L46.9311 13.618L47.445 14.7152L49.6732 13.6795L50.0724 14.5487L46.8525 16.0455Z" fill="white"/>
<path d="M52.4969 13.5426L52.4023 7.97023L53.7734 7.47876L57.2642 11.8331L56.1676 12.2263L55.4677 11.3335L53.562 12.0168L53.5935 13.1494L52.4969 13.5426ZM53.5313 11.012L54.8486 10.5396L53.4665 8.76258L53.5313 11.012Z" fill="white"/>
<path d="M58.664 11.4575L57.3477 6.34815L59.0202 5.9204C59.5754 5.77839 60.0857 5.76494 60.5507 5.87995C61.0157 5.99497 61.4096 6.21574 61.7334 6.54233C62.0572 6.86887 62.2828 7.27905 62.4102 7.77283C62.5373 8.26664 62.5386 8.73656 62.4138 9.18272C62.2877 9.62428 62.0487 10.007 61.697 10.3309C61.3452 10.6548 60.8918 10.8877 60.3366 11.0297L58.664 11.4575ZM59.4923 10.2588L60.1257 10.0969C60.4605 10.0112 60.7323 9.87094 60.9415 9.67619C61.1494 9.47683 61.2888 9.23897 61.3594 8.96261C61.4332 8.6805 61.4278 8.37484 61.343 8.04569C61.2573 7.71189 61.1143 7.44146 60.914 7.23436C60.7186 7.02606 60.4823 6.88671 60.2047 6.8163C59.9276 6.74589 59.6211 6.75355 59.2863 6.83922L58.6529 7.00114L59.4923 10.2588Z" fill="white"/>
<path d="M71.5715 9.14914C71.1758 9.19017 70.8009 9.16016 70.4474 9.05918C70.0939 8.95815 69.7772 8.79879 69.4974 8.58102C69.2216 8.35808 68.996 8.0896 68.8201 7.77558C68.6447 7.4616 68.5368 7.11209 68.4964 6.72709C68.4564 6.34209 68.4875 5.9782 68.5896 5.63542C68.6967 5.29211 68.8623 4.98545 69.0866 4.71543C69.3158 4.44492 69.5929 4.22401 69.9176 4.0527C70.2427 3.88139 70.6055 3.77497 71.0061 3.73347C71.4067 3.69196 71.7838 3.7217 72.1369 3.8227C72.4904 3.9237 72.8048 4.08332 73.0802 4.30158C73.36 4.51935 73.5856 4.78548 73.7566 5.09997C73.932 5.41398 74.0399 5.76344 74.0804 6.14844C74.1203 6.53344 74.087 6.8976 73.98 7.24087C73.8729 7.58418 73.7051 7.89342 73.4768 8.16863C73.2525 8.43866 72.9776 8.65931 72.6525 8.83061C72.3278 9.00196 71.9672 9.10812 71.5715 9.14914ZM71.4684 8.16319C71.7891 8.13 72.0689 8.02742 72.3078 7.8555C72.5517 7.6784 72.7329 7.4532 72.8519 7.1798C72.9758 6.90596 73.0198 6.60004 72.9847 6.262C72.9496 5.92395 72.843 5.63365 72.6654 5.39101C72.4922 5.14794 72.2683 4.96705 71.9943 4.84837C71.7243 4.72919 71.4294 4.68621 71.1092 4.71941C70.7885 4.75262 70.5065 4.85542 70.2626 5.02782C70.0233 5.19974 69.8416 5.42261 69.7177 5.69649C69.5987 5.96984 69.5569 6.27554 69.592 6.61358C69.6275 6.95159 69.7315 7.24215 69.9047 7.48528C70.0823 7.72787 70.3062 7.91108 70.5762 8.03494C70.8507 8.15363 71.1482 8.19638 71.4684 8.16319Z" fill="white"/>
<path d="M78.6737 3.49301L79.7751 3.48267L79.8058 6.7537C79.8098 7.14547 79.7231 7.50034 79.5459 7.81825C79.3687 8.13621 79.1178 8.38871 78.7927 8.5759C78.4725 8.76301 78.0941 8.85859 77.6584 8.86271C77.2272 8.86673 76.8474 8.77823 76.5188 8.59723C76.1901 8.4162 75.9343 8.16842 75.7513 7.85387C75.5683 7.53932 75.4751 7.18614 75.4715 6.79437L75.4404 3.52336L76.5419 3.51302L76.573 6.78406C76.5761 7.11445 76.6755 7.38023 76.8719 7.58136C77.0726 7.77776 77.3315 7.87445 77.6491 7.87149C77.9711 7.86843 78.2287 7.76687 78.421 7.56681C78.6133 7.36205 78.7079 7.09445 78.7048 6.76401L78.6737 3.49301Z" fill="white"/>
<path d="M82.0645 8.89071L82.4628 3.63074L84.6311 3.79388C84.9948 3.82125 85.3115 3.90897 85.5806 4.05703C85.8542 4.20544 86.062 4.41042 86.2037 4.67197C86.3454 4.93352 86.4022 5.24787 86.3747 5.61502C86.3476 5.97272 86.2415 6.27244 86.0571 6.5142C85.8728 6.75122 85.6366 6.92278 85.3483 7.0289L86.3938 9.21646L85.1609 9.1237L84.2353 7.13688L83.3071 7.06705L83.1628 8.97333L82.0645 8.89071ZM83.3795 6.11389L84.4565 6.19496C84.6879 6.21235 84.8771 6.16031 85.0241 6.03883C85.1756 5.91771 85.2599 5.74889 85.2764 5.53236C85.2928 5.31114 85.2355 5.1293 85.1036 4.98684C84.9766 4.84474 84.7976 4.76498 84.5662 4.74757L83.4892 4.66653L83.3795 6.11389Z" fill="white"/>
<path d="M92.6739 10.4332C92.3311 10.3613 92.0237 10.2342 91.7524 10.0519C91.481 9.86966 91.2616 9.64764 91.0942 9.38584C90.9267 9.12404 90.825 8.83746 90.7891 8.52606L91.7826 8.2928C91.8443 8.61925 91.9762 8.88813 92.1787 9.09935C92.3857 9.3115 92.6166 9.44435 92.8716 9.49776C93.1358 9.55312 93.3534 9.54321 93.524 9.46807C93.695 9.39292 93.7962 9.27911 93.8287 9.12665C93.8566 8.9927 93.8353 8.87725 93.7638 8.78024C93.6932 8.67864 93.5862 8.58872 93.4432 8.51048L92.4563 7.95643C92.045 7.72556 91.7586 7.46536 91.5969 7.17586C91.4366 6.88175 91.3922 6.56375 91.4641 6.22194C91.5299 5.91244 91.6627 5.66055 91.8634 5.46628C92.0699 5.26834 92.3257 5.13384 92.6313 5.06278C92.9369 4.99173 93.2771 4.99554 93.6528 5.07422C93.9863 5.14416 94.2781 5.26553 94.5268 5.43831C94.7773 5.60652 94.9785 5.8103 95.1313 6.04971C95.2898 6.28549 95.3884 6.54012 95.4275 6.81365L94.4344 7.04686C94.398 6.7836 94.2954 6.55946 94.1262 6.37448C93.957 6.18955 93.7332 6.0679 93.4551 6.00962C93.2189 5.9601 93.0177 5.97337 92.8516 6.04953C92.685 6.12565 92.5851 6.24455 92.5509 6.40621C92.4994 6.65106 92.634 6.8625 92.9546 7.04062L93.9161 7.57502C94.3239 7.80031 94.6117 8.05352 94.78 8.33479C94.9479 8.61602 94.9945 8.93446 94.9194 9.29017C94.8541 9.59967 94.716 9.85289 94.5051 10.0499C94.2985 10.2478 94.0383 10.3813 93.7234 10.4504C93.4085 10.5196 93.059 10.5138 92.6739 10.4332Z" fill="white"/>
<path d="M97.6965 11.6265L98.9316 7.48638L97.6445 7.1051L97.9177 6.18884L101.535 7.26007L101.261 8.17633L99.9873 7.79907L98.7526 11.9391L97.6965 11.6265Z" fill="white"/>
<path d="M104.13 13.9537C103.759 13.809 103.441 13.6109 103.173 13.3593C102.905 13.1078 102.698 12.8213 102.55 12.4997C102.408 12.1755 102.331 11.8337 102.32 11.4744C102.308 11.1151 102.374 10.7552 102.515 10.3949C102.657 10.0345 102.853 9.72556 103.102 9.46792C103.355 9.212 103.644 9.01543 103.967 8.87825C104.295 8.74279 104.643 8.6734 105.011 8.67004C105.379 8.66663 105.75 8.73819 106.125 8.88466C106.5 9.03119 106.821 9.23015 107.088 9.48168C107.356 9.73321 107.561 10.0189 107.705 10.3387C107.853 10.6603 107.931 10.9999 107.937 11.3575C107.949 11.7168 107.884 12.0766 107.741 12.437C107.6 12.7973 107.402 13.1055 107.149 13.3614C106.895 13.6173 106.604 13.8151 106.274 13.955C105.95 14.0922 105.605 14.1625 105.237 14.1658C104.869 14.1692 104.5 14.0985 104.13 13.9537ZM104.493 13.0309C104.793 13.1481 105.089 13.1851 105.38 13.1419C105.678 13.0961 105.943 12.979 106.175 12.7907C106.411 12.6042 106.592 12.3527 106.716 12.0363C106.841 11.7199 106.88 11.4133 106.834 11.1164C106.792 10.8213 106.677 10.5583 106.488 10.3272C106.304 10.0979 106.061 9.9247 105.762 9.80751C105.462 9.69033 105.164 9.6525 104.868 9.69392C104.576 9.73711 104.311 9.85199 104.075 10.0385C103.843 10.2268 103.665 10.4791 103.541 10.7955C103.416 11.112 103.375 11.4177 103.417 11.7128C103.462 12.0097 103.577 12.2749 103.759 12.5086C103.949 12.7396 104.193 12.9137 104.493 13.0309Z" fill="white"/>
<path d="M107.774 15.4525L110.118 10.7224L112.068 11.6814C112.395 11.8422 112.655 12.0415 112.849 12.279C113.048 12.5186 113.163 12.7861 113.197 13.0815C113.23 13.3769 113.165 13.6897 113.001 14.0198C112.842 14.3415 112.631 14.5801 112.369 14.7355C112.11 14.8867 111.826 14.9579 111.519 14.9489L111.668 17.3673L110.559 16.8221L110.446 14.6345L109.611 14.224L108.762 15.9383L107.774 15.4525ZM110.036 13.3669L111.005 13.8432C111.213 13.9456 111.408 13.9678 111.59 13.9099C111.776 13.8541 111.917 13.7288 112.014 13.5341C112.112 13.3351 112.127 13.145 112.058 12.9639C111.994 12.7848 111.858 12.644 111.649 12.5416L110.681 12.0653L110.036 13.3669Z" fill="white"/>
<path d="M113.612 18.5626L114.806 16.5927L114.834 13.1357L115.892 13.7726L115.844 15.9351L117.736 14.8817L118.794 15.5186L115.753 17.154L114.555 19.1299L113.612 18.5626Z" fill="white"/>
<path d="M120.798 23.4148L124.184 19.3601L125.856 20.746C126.136 20.9785 126.343 21.2328 126.476 21.5089C126.612 21.788 126.662 22.075 126.625 22.37C126.589 22.665 126.452 22.9539 126.216 23.237C125.985 23.5127 125.725 23.6957 125.434 23.786C125.145 23.8726 124.853 23.8758 124.556 23.7957L124.135 26.182L123.185 25.3939L123.587 23.2406L122.871 22.6473L121.644 24.1168L120.798 23.4148ZM123.485 21.9126L124.315 22.601C124.494 22.7489 124.679 22.8159 124.869 22.8018C125.063 22.7908 125.23 22.7019 125.369 22.5349C125.511 22.3644 125.57 22.1831 125.546 21.9909C125.526 21.8018 125.426 21.6332 125.248 21.4853L124.417 20.7968L123.485 21.9126Z" fill="white"/>
<path d="M126.41 28.2911L130.188 24.5955L132.682 27.1266L131.998 27.7963L130.275 26.0482L129.418 26.8866L131.041 28.5336L130.357 29.2033L128.733 27.5563L127.866 28.4046L129.589 30.1526L128.899 30.8172L126.41 28.2911Z" fill="white"/>
<path d="M130.659 32.76L135.901 30.8145L136.822 31.9383L133.865 36.669L133.128 35.7698L133.74 34.8147L132.458 33.2522L131.397 33.6591L130.659 32.76ZM133.399 32.8885L134.285 33.9686L135.505 32.0781L133.399 32.8885Z" fill="white"/>
<path d="M134.688 37.8591L139.084 34.92L140.046 36.3488C140.366 36.8231 140.549 37.2978 140.595 37.7729C140.641 38.248 140.563 38.692 140.362 39.105C140.161 39.518 139.848 39.8665 139.423 40.1506C138.998 40.4346 138.554 40.5924 138.09 40.6238C137.631 40.6527 137.189 40.5558 136.765 40.3332C136.342 40.1106 135.97 39.7621 135.65 39.2878L134.688 37.8591ZM136.099 38.2379L136.463 38.7788C136.655 39.0649 136.879 39.2737 137.133 39.4052C137.391 39.5341 137.662 39.5856 137.947 39.5599C138.239 39.5355 138.526 39.4286 138.809 39.2392C139.097 39.0472 139.305 38.8227 139.434 38.5658C139.566 38.3127 139.619 38.0442 139.593 37.7601C139.568 37.4761 139.458 37.1911 139.266 36.9049L138.901 36.364L136.099 38.2379Z" fill="white"/>
<path d="M141.173 49.2159C141.002 48.8579 140.906 48.4959 140.883 48.13C140.861 47.7644 140.907 47.414 141.019 47.0781C141.138 46.7449 141.317 46.4435 141.556 46.174C141.794 45.9041 142.089 45.6863 142.44 45.5204C142.791 45.354 143.146 45.2619 143.504 45.2438C143.865 45.2301 144.21 45.2836 144.54 45.4044C144.873 45.5292 145.174 45.716 145.445 45.9642C145.715 46.2125 145.936 46.5178 146.109 46.8803C146.282 47.2427 146.379 47.6069 146.402 47.9724C146.424 48.338 146.378 48.6867 146.263 49.0181C146.15 49.3536 145.973 49.654 145.733 49.9196C145.494 50.189 145.199 50.4068 144.849 50.5727C144.497 50.7391 144.142 50.8289 143.781 50.8427C143.421 50.8564 143.072 50.802 142.736 50.6789C142.405 50.5586 142.105 50.374 141.835 50.1258C141.564 49.8775 141.344 49.5739 141.173 49.2159ZM142.071 48.7907C142.21 49.0805 142.4 49.3093 142.643 49.477C142.891 49.6465 143.165 49.7417 143.463 49.7625C143.764 49.7877 144.068 49.7275 144.376 49.5815C144.684 49.4359 144.923 49.2389 145.094 48.9911C145.266 48.7477 145.362 48.4774 145.383 48.18C145.406 47.887 145.349 47.5954 145.211 47.3055C145.072 47.0157 144.881 46.7847 144.637 46.613C144.394 46.4453 144.123 46.3492 143.822 46.324C143.524 46.3032 143.221 46.3656 142.913 46.5116C142.604 46.6572 142.364 46.8519 142.192 47.0958C142.022 47.3436 141.923 47.6149 141.896 47.91C141.875 48.207 141.933 48.5008 142.071 48.7907Z" fill="white"/>
<path d="M148.893 54.0037L149.269 55.0348L146.185 56.1539C145.815 56.288 145.45 56.3247 145.091 56.2645C144.731 56.2039 144.408 56.0526 144.123 55.8092C143.839 55.5707 143.622 55.2472 143.473 54.8392C143.326 54.4356 143.283 54.0492 143.345 53.6802C143.406 53.3111 143.556 52.9885 143.792 52.7115C144.029 52.4349 144.332 52.2296 144.702 52.0955L147.786 50.9763L148.163 52.0074L145.078 53.1266C144.767 53.2399 144.548 53.4217 144.424 53.6731C144.305 53.9275 144.3 54.2028 144.408 54.5002C144.518 54.802 144.7 55.0095 144.953 55.1237C145.211 55.2361 145.496 55.2357 145.808 55.1228L148.893 54.0037Z" fill="white"/>
<path d="M144.915 58.9869L150.025 57.6089L150.593 59.7003C150.688 60.0508 150.711 60.3773 150.66 60.6796C150.611 60.9863 150.487 61.2496 150.286 61.47C150.086 61.6903 149.808 61.8483 149.451 61.9448C149.103 62.0386 148.784 62.039 148.494 61.9461C148.209 61.8519 147.968 61.6872 147.771 61.4518L146.049 63.1631L145.726 61.974L147.298 60.4424L147.055 59.5467L145.203 60.0463L144.915 58.9869ZM147.98 59.2971L148.263 60.3362C148.324 60.5592 148.436 60.7199 148.6 60.8172C148.765 60.9194 148.953 60.942 149.163 60.8854C149.378 60.8274 149.531 60.7128 149.622 60.5415C149.714 60.3751 149.73 60.18 149.669 59.9565L149.387 58.9179L147.98 59.2971Z" fill="white"/>
<path d="M146.991 69.4683C146.945 69.1223 146.962 68.7913 147.045 68.4757C147.127 68.1598 147.264 67.8797 147.455 67.6354C147.647 67.3907 147.885 67.1995 148.167 67.0623L148.719 67.9173C148.431 68.0845 148.22 68.2978 148.088 68.5585C147.956 68.8236 147.907 69.0847 147.942 69.3422C147.978 69.6091 148.059 69.81 148.187 69.9454C148.315 70.0808 148.457 70.1379 148.612 70.1175C148.748 70.0994 148.85 70.0405 148.918 69.941C148.991 69.8409 149.04 69.7108 149.066 69.5502L149.262 68.4381C149.343 67.9752 149.494 67.6194 149.714 67.3712C149.939 67.122 150.225 66.9747 150.573 66.9287C150.887 66.8866 151.17 66.9278 151.421 67.0517C151.677 67.1796 151.889 67.3752 152.058 67.6385C152.228 67.9018 152.337 68.2231 152.388 68.6019C152.433 68.9386 152.415 69.2528 152.335 69.5444C152.259 69.8356 152.133 70.0927 151.957 70.3162C151.787 70.5437 151.579 70.7211 151.333 70.849L150.782 69.9936C151.019 69.8719 151.197 69.7007 151.315 69.4798C151.434 69.2595 151.474 69.009 151.437 68.728C151.405 68.4895 151.325 68.3049 151.198 68.1739C151.071 68.0434 150.925 67.989 150.76 68.0106C150.511 68.0438 150.356 68.2408 150.294 68.6014L150.109 69.683C150.032 70.141 149.888 70.4954 149.678 70.7472C149.468 70.999 149.182 71.1491 148.821 71.1968C148.506 71.2389 148.221 71.1933 147.964 71.0606C147.708 70.9327 147.494 70.7326 147.324 70.46C147.154 70.1874 147.043 69.8569 146.991 69.4683Z" fill="white"/>
<path d="M147.535 74.5849L151.864 74.3654L151.796 73.0289L152.754 72.9807L152.945 76.7356L151.988 76.7838L151.92 75.4615L147.591 75.681L147.535 74.5849Z" fill="white"/>
<path d="M147.477 81.4037C147.49 81.0072 147.571 80.6417 147.72 80.3067C147.869 79.9717 148.071 79.681 148.326 79.4345C148.585 79.1928 148.883 79.007 149.219 78.8769C149.556 78.7463 149.918 78.6879 150.306 78.7012C150.694 78.7145 151.052 78.795 151.379 78.9428C151.705 79.0955 151.987 79.3013 152.225 79.5597C152.462 79.8226 152.644 80.1261 152.77 80.4709C152.895 80.8152 152.951 81.1878 152.938 81.5887C152.924 81.9896 152.843 82.3578 152.694 82.6928C152.545 83.0278 152.343 83.3159 152.088 83.5575C151.834 83.804 151.538 83.9903 151.202 84.1155C150.866 84.2461 150.504 84.3045 150.115 84.2917C149.727 84.2784 149.37 84.1952 149.043 84.0425C148.717 83.8899 148.432 83.6819 148.19 83.4186C147.952 83.1601 147.771 82.8588 147.645 82.5145C147.519 82.1702 147.463 81.7998 147.477 81.4037ZM148.471 81.4373C148.46 81.7582 148.523 82.0485 148.662 82.3082C148.804 82.5729 149.003 82.7826 149.258 82.9375C149.514 83.0973 149.812 83.1831 150.153 83.1946C150.494 83.2061 150.797 83.1406 151.063 82.9986C151.328 82.8614 151.538 82.6654 151.694 82.4109C151.85 82.1609 151.933 81.8759 151.944 81.5551C151.955 81.2342 151.891 80.9417 151.753 80.6771C151.615 80.4173 151.418 80.2076 151.163 80.0478C150.908 79.8929 150.61 79.8093 150.269 79.7978C149.928 79.7863 149.624 79.8495 149.359 79.9867C149.094 80.1288 148.881 80.3248 148.721 80.5744C148.565 80.8289 148.482 81.1165 148.471 81.4373Z" fill="white"/>
<path d="M147.274 85.3281L152.53 85.953L152.273 88.1046C152.229 88.4652 152.127 88.7763 151.968 89.0378C151.807 89.3038 151.592 89.5021 151.324 89.6317C151.055 89.7614 150.738 89.8043 150.371 89.7609C150.013 89.7185 149.718 89.5999 149.483 89.4056C149.253 89.2118 149.092 88.9693 148.998 88.6776L146.759 89.6238L146.905 88.4006L148.938 87.5651L149.048 86.6442L147.143 86.4176L147.274 85.3281ZM150 86.7575L149.873 87.8262C149.845 88.0559 149.889 88.2466 150.004 88.398C150.12 88.5542 150.285 88.6453 150.501 88.671C150.723 88.6975 150.907 88.648 151.056 88.5232C151.204 88.4028 151.292 88.228 151.319 87.9983L151.447 86.9296L150 86.7575Z" fill="white"/>
<path d="M146.276 91.8484L148.537 92.3135L151.818 91.1881L151.568 92.3944L149.505 93.0693L151.133 94.4956L150.883 95.7023L148.321 93.3897L146.053 92.9228L146.276 91.8484Z" fill="white"/>
<path d="M144.078 100.215L149.044 102.045L148.289 104.077C148.162 104.418 147.991 104.697 147.774 104.914C147.555 105.136 147.3 105.278 147.009 105.342C146.718 105.406 146.399 105.373 146.052 105.246C145.714 105.122 145.455 104.938 145.272 104.694C145.094 104.453 144.994 104.179 144.971 103.873L142.572 104.273L143.001 103.117L145.173 102.778L145.496 101.908L143.696 101.245L144.078 100.215ZM146.395 102.239L146.021 103.249C145.94 103.466 145.938 103.661 146.015 103.836C146.09 104.014 146.23 104.141 146.434 104.217C146.643 104.294 146.835 104.288 147.008 104.202C147.18 104.119 147.307 103.969 147.387 103.752L147.762 102.743L146.395 102.239Z" fill="white"/>
<path d="M141.336 107.113L146.092 109.43L144.528 112.617L143.666 112.197L144.746 109.996L143.667 109.471L142.65 111.544L141.788 111.124L142.806 109.051L141.714 108.519L140.634 110.72L139.775 110.293L141.336 107.113Z" fill="white"/>
<path d="M138.523 112.594L142.11 116.87L141.354 118.111L135.893 116.909L136.497 115.917L137.605 116.173L138.657 114.448L137.918 113.587L138.523 112.594ZM139.314 115.211L138.588 116.403L140.783 116.92L139.314 115.211Z" fill="white"/>
<path d="M135.04 118.078L139.286 121.229L138.255 122.609C137.913 123.067 137.525 123.396 137.09 123.598C136.656 123.8 136.21 123.875 135.752 123.824C135.294 123.772 134.86 123.595 134.45 123.29C134.04 122.986 133.742 122.621 133.558 122.195C133.377 121.773 133.322 121.326 133.391 120.854C133.461 120.381 133.667 119.916 134.009 119.458L135.04 118.078ZM135.152 119.529L134.761 120.052C134.555 120.328 134.432 120.607 134.392 120.89C134.356 121.175 134.398 121.447 134.517 121.706C134.637 121.972 134.834 122.207 135.108 122.41C135.385 122.616 135.667 122.737 135.953 122.772C136.237 122.812 136.508 122.772 136.769 122.653C137.029 122.534 137.262 122.337 137.469 122.06L137.859 121.538L135.152 119.529Z" fill="white"/>
<path d="M126.455 127.956C126.737 127.676 127.047 127.465 127.386 127.322C127.724 127.179 128.071 127.105 128.426 127.099C128.781 127.1 129.126 127.167 129.461 127.302C129.796 127.436 130.1 127.64 130.374 127.914C130.648 128.189 130.853 128.492 130.99 128.822C131.123 129.156 131.188 129.499 131.183 129.849C131.176 130.203 131.1 130.548 130.955 130.885C130.81 131.221 130.595 131.532 130.31 131.814C130.024 132.098 129.713 132.311 129.374 132.453C129.035 132.596 128.69 132.669 128.338 132.671C127.983 132.677 127.64 132.611 127.308 132.474C126.974 132.339 126.669 132.135 126.395 131.861C126.121 131.587 125.918 131.282 125.785 130.948C125.651 130.614 125.587 130.268 125.591 129.911C125.595 129.561 125.67 129.217 125.814 128.88C125.959 128.544 126.173 128.235 126.455 127.956ZM127.157 128.658C126.928 128.884 126.775 129.14 126.697 129.423C126.62 129.713 126.621 130.002 126.7 130.29C126.777 130.58 126.935 130.846 127.176 131.087C127.417 131.327 127.683 131.487 127.974 131.564C128.262 131.645 128.55 131.645 128.838 131.566C129.123 131.49 129.38 131.338 129.608 131.112C129.836 130.886 129.991 130.629 130.072 130.342C130.15 130.059 130.15 129.771 130.074 129.481C129.994 129.194 129.834 128.93 129.593 128.689C129.353 128.448 129.089 128.287 128.801 128.207C128.509 128.129 128.22 128.126 127.932 128.199C127.643 128.279 127.385 128.432 127.157 128.658Z" fill="white"/>
<path d="M124.497 136.803L123.647 137.501L121.56 134.975C121.31 134.673 121.153 134.343 121.09 133.984C121.028 133.626 121.064 133.273 121.199 132.923C121.33 132.577 121.564 132.266 121.9 131.99C122.233 131.717 122.584 131.548 122.954 131.483C123.324 131.418 123.679 131.451 124.02 131.581C124.36 131.711 124.656 131.927 124.906 132.23L126.993 134.755L126.142 135.453L124.055 132.927C123.845 132.672 123.6 132.528 123.32 132.494C123.04 132.467 122.778 132.554 122.532 132.755C122.284 132.959 122.148 133.199 122.124 133.475C122.104 133.755 122.199 134.022 122.41 134.278L124.497 136.803Z" fill="white"/>
<path d="M118.456 134.726L121.463 139.068L119.674 140.299C119.373 140.505 119.072 140.635 118.769 140.688C118.462 140.744 118.172 140.715 117.897 140.6C117.621 140.485 117.379 140.277 117.169 139.973C116.964 139.678 116.858 139.379 116.849 139.075C116.843 138.775 116.918 138.494 117.076 138.231L114.883 137.184L115.9 136.484L117.873 137.45L118.639 136.923L117.549 135.35L118.456 134.726ZM119.184 137.71L118.295 138.321C118.104 138.453 117.99 138.612 117.952 138.798C117.91 138.987 117.952 139.172 118.076 139.35C118.202 139.533 118.361 139.638 118.553 139.666C118.742 139.697 118.932 139.647 119.123 139.516L120.012 138.905L119.184 137.71Z" fill="white"/>
<path d="M109.23 140.169C109.542 140.01 109.861 139.917 110.187 139.889C110.513 139.861 110.824 139.896 111.119 139.995C111.415 140.094 111.674 140.253 111.899 140.473L111.273 141.276C111.019 141.061 110.747 140.934 110.457 140.897C110.162 140.861 109.898 140.903 109.666 141.021C109.426 141.143 109.263 141.287 109.177 141.453C109.092 141.618 109.085 141.77 109.156 141.908C109.218 142.031 109.308 142.107 109.425 142.138C109.543 142.172 109.683 142.175 109.844 142.147L110.962 141.96C111.427 141.882 111.814 141.905 112.122 142.029C112.432 142.157 112.667 142.377 112.827 142.688C112.971 142.97 113.026 143.249 112.993 143.526C112.957 143.809 112.843 144.074 112.65 144.32C112.457 144.567 112.19 144.777 111.848 144.951C111.545 145.106 111.241 145.194 110.938 145.215C110.638 145.241 110.353 145.208 110.083 145.118C109.811 145.034 109.573 144.897 109.371 144.709L109.996 143.906C110.191 144.088 110.412 144.198 110.66 144.236C110.908 144.274 111.159 144.229 111.412 144.1C111.627 143.99 111.775 143.854 111.856 143.691C111.938 143.527 111.941 143.372 111.865 143.225C111.751 143.002 111.513 142.922 111.151 142.984L110.066 143.171C109.607 143.251 109.223 143.234 108.915 143.121C108.607 143.007 108.37 142.788 108.204 142.465C108.06 142.183 108.007 141.9 108.047 141.614C108.083 141.331 108.201 141.064 108.402 140.813C108.604 140.562 108.879 140.348 109.23 140.169Z" fill="white"/>
<path d="M104.569 142.386L106.22 146.38L107.461 145.87L107.826 146.755L104.337 148.186L103.972 147.302L105.201 146.798L103.551 142.804L104.569 142.386Z" fill="white"/>
<path d="M98.0978 144.604C98.4776 144.484 98.8506 144.439 99.217 144.467C99.5834 144.495 99.9259 144.588 100.244 144.745C100.559 144.908 100.835 145.127 101.069 145.399C101.305 145.671 101.481 145.992 101.598 146.361C101.715 146.73 101.758 147.093 101.727 147.449C101.691 147.807 101.59 148.141 101.425 148.45C101.256 148.761 101.029 149.033 100.745 149.266C100.461 149.498 100.127 149.675 99.7429 149.796C99.3587 149.917 98.9834 149.963 98.617 149.935C98.2502 149.906 97.91 149.813 97.5964 149.654C97.2784 149.497 97.0039 149.281 96.773 149.008C96.5376 148.735 96.3617 148.414 96.2449 148.045C96.1277 147.676 96.0873 147.313 96.1228 146.955C96.1588 146.597 96.2605 146.26 96.4288 145.945C96.5945 145.636 96.8188 145.365 97.103 145.132C97.3868 144.899 97.7185 144.723 98.0978 144.604ZM98.3972 145.549C98.0903 145.646 97.8367 145.802 97.6368 146.018C97.4343 146.24 97.302 146.498 97.2402 146.789C97.174 147.082 97.1923 147.391 97.2953 147.715C97.3979 148.039 97.5604 148.302 97.7834 148.504C98.0019 148.708 98.2577 148.84 98.5504 148.901C98.8386 148.964 99.1362 148.947 99.4435 148.85C99.7504 148.754 100.006 148.597 100.211 148.379C100.41 148.163 100.543 147.908 100.609 147.615C100.671 147.324 100.65 147.016 100.548 146.692C100.445 146.367 100.285 146.104 100.066 145.9C99.8432 145.698 99.5865 145.563 99.297 145.496C99.0043 145.435 98.7045 145.452 98.3972 145.549Z" fill="white"/>
<path d="M94.3166 145.72L95.4767 150.867L93.3551 151.342C92.9993 151.422 92.6711 151.43 92.37 151.366C92.0649 151.304 91.806 151.169 91.5937 150.96C91.3818 150.751 91.2353 150.467 91.154 150.107C91.0754 149.757 91.0887 149.44 91.1944 149.155C91.301 148.875 91.4769 148.642 91.7216 148.456L90.0801 146.668L91.2868 146.398L92.7542 148.029L93.6624 147.826L93.2418 145.961L94.3166 145.72ZM93.8725 148.758L92.8186 148.995C92.5921 149.045 92.4264 149.15 92.3216 149.309C92.2119 149.469 92.1808 149.655 92.2288 149.867C92.2776 150.083 92.386 150.241 92.5534 150.338C92.7169 150.437 92.9114 150.461 93.1379 150.411L94.1918 150.175L93.8725 148.758Z" fill="white"/>
<path d="M87.8155 146.956L88.129 149.236L90.2875 151.942L89.0621 152.11L87.7364 150.397L86.929 152.401L85.7041 152.568L87.0387 149.392L86.7243 147.105L87.8155 146.956Z" fill="white"/>
</svg>
