<svg width="21" height="21" viewBox="0 0 21 21" fill="none" xmlns="http://www.w3.org/2000/svg">
<g clip-path="url(#clip0)">
<path d="M14.6758 0.291016H7.17578C3.72453 0.291016 0.925781 3.08977 0.925781 6.54102V14.041C0.925781 17.4922 3.72453 20.291 7.17578 20.291H14.6758C18.127 20.291 20.9258 17.4922 20.9258 14.041V6.54102C20.9258 3.08977 18.127 0.291016 14.6758 0.291016ZM19.0508 14.041C19.0508 16.4535 17.0883 18.416 14.6758 18.416H7.17578C4.76328 18.416 2.80078 16.4535 2.80078 14.041V6.54102C2.80078 4.12852 4.76328 2.16602 7.17578 2.16602H14.6758C17.0883 2.16602 19.0508 4.12852 19.0508 6.54102V14.041Z" fill="white"/>
<path d="M10.9258 5.29102C8.16453 5.29102 5.92578 7.52977 5.92578 10.291C5.92578 13.0523 8.16453 15.291 10.9258 15.291C13.6871 15.291 15.9258 13.0523 15.9258 10.291C15.9258 7.52977 13.6871 5.29102 10.9258 5.29102ZM10.9258 13.416C9.20328 13.416 7.80078 12.0135 7.80078 10.291C7.80078 8.56727 9.20328 7.16602 10.9258 7.16602C12.6483 7.16602 14.0508 8.56727 14.0508 10.291C14.0508 12.0135 12.6483 13.416 10.9258 13.416Z" fill="white"/>
<path d="M16.3029 5.582C16.6709 5.582 16.9692 5.28371 16.9692 4.91576C16.9692 4.5478 16.6709 4.24951 16.3029 4.24951C15.935 4.24951 15.6367 4.5478 15.6367 4.91576C15.6367 5.28371 15.935 5.582 16.3029 5.582Z" fill="white"/>
</g>
<defs>
<clipPath id="clip0">
<rect width="20" height="20" fill="white" transform="translate(0.925781 0.291016)"/>
</clipPath>
</defs>
</svg>
