<svg width="108" height="24" viewBox="0 0 108 24" fill="none" xmlns="http://www.w3.org/2000/svg">
<g clip-path="url(#clip0)">
<path d="M3.3584 7.05532L8.1584 20.9513H14.1584L17.4704 11.0633L20.9504 20.9513H26.7344L31.7264 7.03132H27.1424L23.6144 17.9993L19.9664 7.03132H15.2624L11.5664 17.9993L8.0384 7.03132C8.0864 7.19932 8.0864 7.24732 7.9184 7.24732C7.5824 7.24732 6.5984 7.05532 3.8864 7.05532H3.3584ZM31.7575 14.2313C31.7575 18.8153 36.2695 21.3353 40.8535 21.3353C45.3895 21.3353 49.8295 18.8633 49.8295 14.2313C49.8295 9.55132 45.5095 7.07932 40.9975 7.07932C36.3895 7.07932 31.7575 9.69532 31.7575 14.2313ZM40.8055 9.62332C43.6855 9.62332 45.2215 11.6393 45.2215 14.2313C45.2215 16.8713 43.4215 18.9833 40.8055 18.9833C38.1895 18.9833 36.3655 16.8713 36.3655 14.2313C36.3655 11.9033 37.9015 9.62332 40.8055 9.62332ZM56.5923 2.25532H52.1763V20.9513H56.5923V2.25532ZM58.945 14.4233C58.945 18.0473 62.665 21.1673 67.657 21.1673C70.321 21.1673 73.033 20.3033 74.665 18.0953V20.9513H79.105V2.23132H74.665V10.9673C73.297 9.38332 70.033 7.87132 67.369 7.87132C62.665 7.87132 58.945 10.2953 58.945 14.4233ZM63.409 14.4233C63.409 11.8313 65.329 10.2713 68.569 10.2713C72.241 10.2713 74.665 12.6473 74.665 14.6393C74.665 16.1993 72.337 18.6953 69.097 18.6953C65.977 18.6953 63.409 17.3513 63.409 14.4233ZM86.8456 20.9513V8.95132H82.4056V20.9513H86.8456ZM86.8456 6.93532V2.27932H82.4056V6.93532H86.8456ZM98.4719 21.2633C102.12 21.2633 105.192 19.8953 106.392 17.7593L102.936 17.1833C101.832 18.3833 100.152 19.0073 98.4239 19.0073C95.9279 19.0073 94.1999 17.4713 94.1279 15.6233C95.6639 15.6233 105.936 15.5753 107.28 15.5753C107.376 15.2153 107.424 14.8073 107.424 14.4233C107.4 9.67132 103.152 7.43932 98.5919 7.43932C93.6239 7.43932 89.3759 10.1513 89.3759 14.3753C89.3759 18.5753 93.5039 21.2633 98.4719 21.2633ZM98.4239 9.83932C100.968 9.83932 102.744 11.4953 102.744 13.8713L94.0559 13.8953C94.0319 11.9033 95.6159 9.83932 98.4239 9.83932Z" fill="white"/>
</g>
<g clip-path="url(#clip1)">
<path d="M0.358398 7.05532L5.1584 20.9513H11.1584L14.4704 11.0633L17.9504 20.9513H23.7344L28.7264 7.03132H24.1424L20.6144 17.9993L16.9664 7.03132H12.2624L8.5664 17.9993L5.0384 7.03132C5.0864 7.19932 5.0864 7.24732 4.9184 7.24732C4.5824 7.24732 3.5984 7.05532 0.886399 7.05532H0.358398ZM28.7575 14.2313C28.7575 18.8153 33.2695 21.3353 37.8535 21.3353C42.3895 21.3353 46.8295 18.8633 46.8295 14.2313C46.8295 9.55132 42.5095 7.07932 37.9975 7.07932C33.3895 7.07932 28.7575 9.69532 28.7575 14.2313ZM37.8055 9.62332C40.6855 9.62332 42.2215 11.6393 42.2215 14.2313C42.2215 16.8713 40.4215 18.9833 37.8055 18.9833C35.1895 18.9833 33.3655 16.8713 33.3655 14.2313C33.3655 11.9033 34.9015 9.62332 37.8055 9.62332ZM53.5923 2.25532H49.1763V20.9513H53.5923V2.25532ZM55.945 14.4233C55.945 18.0473 59.665 21.1673 64.657 21.1673C67.321 21.1673 70.033 20.3033 71.665 18.0953V20.9513H76.105V2.23132H71.665V10.9673C70.297 9.38332 67.033 7.87132 64.369 7.87132C59.665 7.87132 55.945 10.2953 55.945 14.4233ZM60.409 14.4233C60.409 11.8313 62.329 10.2713 65.569 10.2713C69.241 10.2713 71.665 12.6473 71.665 14.6393C71.665 16.1993 69.337 18.6953 66.097 18.6953C62.977 18.6953 60.409 17.3513 60.409 14.4233ZM83.8456 20.9513V8.95132H79.4056V20.9513H83.8456ZM83.8456 6.93532V2.27932H79.4056V6.93532H83.8456ZM95.4719 21.2633C99.1199 21.2633 102.191 19.8953 103.391 17.7593L99.9356 17.1833C98.8319 18.3833 97.1519 19.0073 95.4239 19.0073C92.9279 19.0073 91.1999 17.4713 91.1279 15.6233C92.6639 15.6233 102.935 15.5753 104.279 15.5753C104.375 15.2153 104.423 14.8073 104.423 14.4233C104.399 9.67132 100.152 7.43932 95.5919 7.43932C90.6239 7.43932 86.3759 10.1513 86.3759 14.3753C86.3759 18.5753 90.5039 21.2633 95.4719 21.2633ZM95.4239 9.83932C97.9679 9.83932 99.7436 11.4953 99.7436 13.8713L91.0559 13.8953C91.0319 11.9033 92.6159 9.83932 95.4239 9.83932Z" fill="white"/>
</g>
<path d="M37.9863 7.08423H41.4981L41.374 9.64236H38.3502L37.9863 7.08423Z" fill="white"/>
<path d="M38.3398 18.9587H41.5377L41.4007 21.3164H38.3398V18.9587Z" fill="white"/>
<defs>
<clipPath id="clip0">
<rect width="66" height="23" fill="white" transform="translate(41.3584 0.231323)"/>
</clipPath>
<clipPath id="clip1">
<rect width="38" height="23" fill="white" transform="translate(0.358398 0.231323)"/>
</clipPath>
</defs>
</svg>
