<svg width="179" height="101" viewBox="0 0 179 101" fill="none" xmlns="http://www.w3.org/2000/svg">
<path d="M10.71 30.8785V66.3315H169.288V30.8785H10.71ZM167.288 64.3315H86.288V32.8785H167.288V64.3315Z" fill="white"/>
<path d="M19.1396 54.5445V42.7575H23.2076V51.4055H30.3836V54.5445H19.1396Z" fill="black"/>
<path d="M46.4211 48.5686C46.4211 52.3216 44.0791 54.7246 38.5081 54.7246C33.4481 54.7246 30.5801 52.6525 30.5801 48.5686C30.5801 44.9496 33.3141 42.4875 38.5081 42.4875C43.7831 42.4875 46.4211 44.7546 46.4211 48.5686ZM42.3371 48.6136C42.3371 46.9136 41.6311 45.5506 38.4931 45.5506C35.6251 45.5506 34.6931 46.7666 34.6931 48.6136C34.6931 50.4906 35.5481 51.7066 38.5061 51.7066C41.4831 51.7066 42.3371 50.4156 42.3371 48.6136Z" fill="black"/>
<path d="M59.0055 54.5445L58.9005 53.4025C57.5397 54.3738 55.8833 54.8412 54.2155 54.7245C51.7085 54.7245 49.6205 53.9735 48.4495 52.4575C47.6772 51.3508 47.2871 50.0222 47.3385 48.6735C47.2946 47.3532 47.6981 46.0568 48.4835 44.9945C49.6685 43.5235 51.8165 42.5475 55.0145 42.5475C58.6935 42.5475 60.8555 43.6735 61.7855 45.5655C61.9851 46.0111 62.1024 46.4892 62.1315 46.9765H58.2395C58.1414 46.6804 57.959 46.4193 57.7145 46.2255C56.9392 45.7116 56.0134 45.4738 55.0865 45.5505C54.5428 45.4846 53.9913 45.5349 53.4684 45.698C52.9456 45.861 52.4633 46.1332 52.0535 46.4965C51.5881 47.1335 51.3696 47.9177 51.4385 48.7035C51.3846 49.4533 51.5854 50.1992 52.0085 50.8205C52.4221 51.2058 52.9136 51.4977 53.4499 51.6764C53.9861 51.8552 54.5545 51.9166 55.1165 51.8565C56.2329 51.9473 57.3411 51.603 58.2095 50.8955C58.3961 50.6623 58.5246 50.3881 58.5845 50.0955H54.3965V47.5625H62.2335V54.5445H59.0055Z" fill="black"/>
<path d="M79.215 48.5686C79.215 52.3216 76.872 54.7246 71.302 54.7246C66.242 54.7246 63.374 52.6525 63.374 48.5686C63.374 44.9496 66.108 42.4875 71.302 42.4875C76.573 42.4875 79.215 44.7546 79.215 48.5686ZM75.131 48.6136C75.131 46.9136 74.425 45.5506 71.287 45.5506C68.419 45.5506 67.487 46.7666 67.487 48.6136C67.487 50.4906 68.343 51.7066 71.3 51.7066C74.276 51.7066 75.131 50.4156 75.131 48.6136Z" fill="black"/>
<path d="M93.1406 54.4996V42.7126H96.0406V54.4996H93.1406Z" fill="white"/>
<path d="M110.932 49.5745C110.197 50.5355 108.932 50.9745 107.149 50.9855C106.773 50.9855 101.788 50.9705 101.788 50.9705V54.4995H98.9502V42.7125H107.15C107.807 42.643 108.472 42.7127 109.1 42.9171C109.729 43.1214 110.307 43.4558 110.798 43.8985C111.446 44.7427 111.761 45.7953 111.684 46.8565C111.75 47.8217 111.485 48.7806 110.932 49.5745ZM108.605 45.7315C108.305 45.2815 107.658 45.0315 106.563 45.0315H101.773V48.6195H106.532C107.703 48.6195 108.32 48.3795 108.605 47.9135C108.775 47.5852 108.847 47.2156 108.815 46.8475C108.84 46.4638 108.768 46.0799 108.605 45.7315Z" fill="white"/>
<path d="M120.047 54.6795C114.701 54.6795 113.065 52.6795 113.065 50.7005H116.098C116.098 51.6765 117.434 52.4125 120.182 52.4125C122.914 52.4125 123.635 51.9315 123.635 51.1505C123.635 50.2795 123.095 50.0095 120.557 49.7245C120.057 49.6795 118.696 49.5145 118.185 49.4395C114.585 49.0335 113.199 47.9675 113.199 46.0605C113.199 44.0485 115.227 42.5325 119.626 42.5325C124.401 42.5325 126.233 44.4095 126.233 46.3615H123.233C123.233 45.3705 122.107 44.7995 119.449 44.7995C116.716 44.7995 116.131 45.1745 116.131 45.9105C116.131 46.6765 116.731 46.9165 119.631 47.2615C120.292 47.3525 121.763 47.5175 122.168 47.5615C125.232 47.8765 126.613 48.9875 126.613 50.9545C126.608 53.2975 124.506 54.6795 120.047 54.6795Z" fill="white"/>
<path d="M135.154 54.6646C131.236 54.6646 128.683 53.1176 128.683 49.8646V42.7126H131.55V49.9046C131.55 51.3916 132.767 52.3816 135.274 52.3816C137.541 52.3816 138.893 51.4516 138.893 49.9046V42.7126H141.731V50.1316C141.731 53.0886 139.358 54.6646 135.154 54.6646Z" fill="white"/>
<path d="M157.27 54.4996V46.6316L153.591 54.4996H150.799L147.225 46.6316V54.4996H144.525V42.7126H148.183L152.237 51.6916L156.381 42.7126H159.981V54.4996H157.27Z" fill="white"/>
</svg>
