<svg width="179" height="101" viewBox="0 0 179 101" fill="none" xmlns="http://www.w3.org/2000/svg">
<path d="M68.3469 58.2215C67.7521 58.2538 67.1638 58.0847 66.6769 57.7415C66.4734 57.5907 66.3098 57.3926 66.2 57.1644C66.0902 56.9362 66.0377 56.6846 66.0469 56.4315V47.1615C66.042 47.1223 66.0462 47.0825 66.059 47.0451C66.0719 47.0077 66.0931 46.9737 66.1211 46.9457C66.149 46.9178 66.183 46.8965 66.2204 46.8837C66.2578 46.8708 66.2976 46.8667 66.3369 46.8715H68.0169C68.2069 46.8715 68.2969 46.9715 68.2969 47.1615V55.7115C68.2969 56.0915 68.4669 56.2815 68.8169 56.2815C68.9653 56.2877 69.1137 56.2708 69.2569 56.2315C69.4569 56.2315 69.5669 56.2915 69.5769 56.4715L69.7269 57.7215C69.7341 57.758 69.7334 57.7955 69.7249 57.8317C69.7163 57.8679 69.7002 57.9018 69.6774 57.9311C69.6547 57.9605 69.6259 57.9847 69.593 58.002C69.5602 58.0193 69.524 58.0294 69.4869 58.0315C69.1189 58.1531 68.7344 58.2172 68.3469 58.2215Z" fill="white"/>
<path d="M77.7969 57.1515C76.9527 57.849 75.8919 58.2305 74.7969 58.2305C73.7019 58.2305 72.641 57.849 71.7969 57.1515C71.0549 56.4025 70.6387 55.3908 70.6387 54.3365C70.6387 53.2822 71.0549 52.2706 71.7969 51.5215C72.6427 50.8277 73.7029 50.4484 74.7969 50.4484C75.8909 50.4484 76.9511 50.8277 77.7969 51.5215C78.5217 52.2774 78.9264 53.2842 78.9264 54.3315C78.9264 55.3788 78.5217 56.3856 77.7969 57.1415V57.1515ZM73.3769 55.8315C73.7686 56.1864 74.2783 56.3829 74.8069 56.3829C75.3354 56.3829 75.8451 56.1864 76.2369 55.8315C76.5914 55.4239 76.7867 54.9018 76.7867 54.3615C76.7867 53.8213 76.5914 53.2992 76.2369 52.8915C75.8451 52.5367 75.3354 52.3401 74.8069 52.3401C74.2783 52.3401 73.7686 52.5367 73.3769 52.8915C73.0223 53.2992 72.8271 53.8213 72.8271 54.3615C72.8271 54.9018 73.0223 55.4239 73.3769 55.8315Z" fill="white"/>
<path d="M88.1765 50.7015C88.3665 50.7015 88.4565 50.8015 88.4565 50.9915V58.1615C88.474 58.6455 88.3834 59.1272 88.1914 59.5718C87.9994 60.0163 87.7108 60.4125 87.3465 60.7315C86.538 61.421 85.4981 61.7783 84.4365 61.7315C83.4777 61.7652 82.5316 61.5034 81.7265 60.9815C81.3827 60.7558 81.0891 60.4617 80.8637 60.1177C80.6383 59.7736 80.4861 59.3869 80.4165 58.9815C80.4165 58.7815 80.4165 58.6915 80.6865 58.6915H82.3665C82.4379 58.694 82.507 58.717 82.5655 58.7578C82.6241 58.7986 82.6696 58.8555 82.6965 58.9215C82.8055 59.2253 83.0227 59.4781 83.3065 59.6315C83.6524 59.81 84.0374 59.8994 84.4265 59.8915C84.6613 59.9044 84.8963 59.8703 85.1178 59.7914C85.3393 59.7124 85.5429 59.5901 85.7165 59.4315C85.8752 59.2657 85.9986 59.0695 86.0794 58.8546C86.1602 58.6398 86.1966 58.4108 86.1865 58.1815V57.5515C85.585 57.994 84.8529 58.2227 84.1065 58.2015C83.5841 58.2205 83.0633 58.1338 82.5753 57.9465C82.0872 57.7592 81.6421 57.4752 81.2665 57.1115C80.5456 56.3657 80.1426 55.3689 80.1426 54.3315C80.1426 53.2942 80.5456 52.2974 81.2665 51.5515C81.6439 51.1911 82.0896 50.9099 82.5773 50.7244C83.0651 50.5389 83.585 50.4529 84.1065 50.4715C84.8745 50.4513 85.6263 50.6948 86.2365 51.1615V51.0015C86.2319 50.9632 86.2359 50.9244 86.2482 50.8878C86.2605 50.8512 86.2808 50.8178 86.3076 50.79C86.3345 50.7623 86.3671 50.7408 86.4032 50.7272C86.4394 50.7137 86.4781 50.7083 86.5165 50.7115L88.1765 50.7015ZM84.2965 56.4215C84.5542 56.4295 84.8104 56.3808 85.0471 56.2789C85.2839 56.1769 85.4953 56.0242 85.6665 55.8315C85.999 55.4022 86.1794 54.8746 86.1794 54.3315C86.1794 53.7885 85.999 53.2609 85.6665 52.8315C85.4959 52.6415 85.2857 52.4911 85.0508 52.3909C84.8158 52.2907 84.5618 52.2431 84.3065 52.2515C84.0459 52.2433 83.7867 52.2919 83.5467 52.3937C83.3067 52.4956 83.0917 52.6484 82.9165 52.8415C82.5482 53.2522 82.3545 53.7903 82.3765 54.3415C82.3585 54.8873 82.5479 55.4197 82.9065 55.8315C83.0821 56.0242 83.2972 56.1766 83.5371 56.2784C83.777 56.3802 84.036 56.4291 84.2965 56.4215Z" fill="white"/>
<path d="M97.0866 57.1515C96.2407 57.8454 95.1806 58.2246 94.0866 58.2246C92.9925 58.2246 91.9324 57.8454 91.0866 57.1515C90.3611 56.3939 89.9561 55.3855 89.9561 54.3365C89.9561 53.2876 90.3611 52.2791 91.0866 51.5215C91.9332 50.8294 92.993 50.4514 94.0866 50.4514C95.1801 50.4514 96.2399 50.8294 97.0866 51.5215C97.8114 52.2775 98.2161 53.2842 98.2161 54.3315C98.2161 55.3788 97.8114 56.3856 97.0866 57.1415V57.1515ZM92.6566 55.8315C92.8483 56.0139 93.0743 56.1564 93.3214 56.2508C93.5686 56.3452 93.8321 56.3897 94.0965 56.3815C94.3594 56.3883 94.6209 56.3433 94.8663 56.2489C95.1117 56.1545 95.336 56.0127 95.5266 55.8315C95.8753 55.4211 96.0668 54.9001 96.0668 54.3615C96.0668 53.823 95.8753 53.3019 95.5266 52.8915C95.336 52.7104 95.1117 52.5685 94.8663 52.4742C94.6209 52.3798 94.3594 52.3347 94.0965 52.3415C93.8321 52.3334 93.5686 52.3778 93.3214 52.4722C93.0743 52.5666 92.8483 52.7092 92.6566 52.8915C92.3078 53.3019 92.1163 53.823 92.1163 54.3615C92.1163 54.9001 92.3078 55.4211 92.6566 55.8315Z" fill="white"/>
<path d="M101.827 49.0016C101.562 49.2329 101.223 49.3605 100.872 49.3605C100.52 49.3605 100.181 49.2329 99.9166 49.0016C99.7968 48.8884 99.7013 48.7521 99.636 48.6007C99.5708 48.4494 99.5371 48.2864 99.5371 48.1216C99.5371 47.9568 99.5708 47.7937 99.636 47.6424C99.7013 47.4911 99.7968 47.3547 99.9166 47.2416C100.184 47.016 100.522 46.8922 100.872 46.8922C101.221 46.8922 101.56 47.016 101.827 47.2416C101.946 47.3547 102.042 47.4911 102.107 47.6424C102.172 47.7937 102.206 47.9568 102.206 48.1216C102.206 48.2864 102.172 48.4494 102.107 48.6007C102.042 48.7521 101.946 48.8884 101.827 49.0016ZM102.037 58.2216C101.442 58.2507 100.855 58.0819 100.367 57.7416C100.166 57.5885 100.005 57.3897 99.8976 57.1618C99.7897 56.9339 99.738 56.6835 99.7466 56.4316V50.9916C99.7418 50.9523 99.7459 50.9125 99.7588 50.8751C99.7716 50.8377 99.7928 50.8037 99.8208 50.7757C99.8488 50.7478 99.8827 50.7266 99.9201 50.7137C99.9575 50.7008 99.9974 50.6967 100.037 50.7016H101.717C101.907 50.7016 101.997 50.8016 101.997 50.9916V55.7116C101.997 56.0916 102.167 56.2816 102.507 56.2816C102.658 56.287 102.81 56.2702 102.957 56.2316C103.157 56.2316 103.267 56.2916 103.277 56.4716L103.427 57.7216C103.434 57.758 103.433 57.7956 103.425 57.8317C103.416 57.8679 103.4 57.9018 103.377 57.9312C103.354 57.9605 103.326 57.9847 103.293 58.002C103.26 58.0193 103.224 58.0294 103.187 58.0316C102.815 58.1538 102.427 58.2179 102.037 58.2216Z" fill="white"/>
<path d="M109.606 50.4616C110.131 50.4408 110.655 50.5257 111.146 50.7113C111.637 50.8968 112.086 51.1791 112.466 51.5416C113.174 52.3005 113.567 53.2992 113.567 54.3366C113.567 55.3739 113.174 56.3726 112.466 57.1316C112.088 57.4972 111.64 57.7823 111.148 57.9697C110.657 58.157 110.132 58.2427 109.606 58.2216C108.858 58.2382 108.124 58.01 107.516 57.5716V61.1816C107.516 61.3715 107.416 61.4616 107.226 61.4616H105.546C105.508 61.4687 105.469 61.4664 105.431 61.4549C105.394 61.4434 105.36 61.4229 105.333 61.3953C105.305 61.3678 105.285 61.3339 105.273 61.2966C105.262 61.2594 105.259 61.2199 105.266 61.1816V52.9816C105.278 52.9013 105.271 52.8195 105.246 52.7425C105.22 52.6656 105.177 52.5957 105.12 52.5383C105.062 52.481 104.992 52.4379 104.915 52.4124C104.838 52.3869 104.757 52.3798 104.676 52.3916H104.346C104.126 52.3916 104.016 52.3116 104.016 52.1516V50.9716C104.011 50.8985 104.031 50.8259 104.073 50.7659C104.115 50.7058 104.176 50.662 104.246 50.6416C104.592 50.5158 104.958 50.4548 105.326 50.4616C105.693 50.4291 106.062 50.5069 106.384 50.685C106.707 50.8632 106.969 51.1336 107.136 51.4616C107.459 51.1357 107.844 50.879 108.268 50.707C108.693 50.5351 109.148 50.4516 109.606 50.4616ZM108.046 55.8316C108.225 56.0179 108.439 56.1662 108.676 56.2675C108.913 56.3688 109.169 56.4211 109.426 56.4211C109.684 56.4211 109.94 56.3688 110.177 56.2675C110.414 56.1662 110.628 56.0179 110.806 55.8316C111.182 55.4126 111.379 54.8637 111.356 54.3016C111.383 53.7389 111.185 53.1888 110.806 52.7716C110.628 52.5852 110.414 52.4369 110.177 52.3356C109.94 52.2343 109.684 52.182 109.426 52.182C109.169 52.182 108.913 52.2343 108.676 52.3356C108.439 52.4369 108.225 52.5852 108.046 52.7716C107.683 53.1961 107.493 53.7429 107.516 54.3016C107.496 54.8598 107.685 55.4055 108.046 55.8316Z" fill="white"/>
<path d="M118.287 58.2216C117.389 58.2585 116.499 58.0437 115.717 57.6016C115.403 57.4125 115.136 57.1553 114.935 56.8489C114.734 56.5424 114.605 56.1947 114.557 55.8316C114.557 55.6316 114.627 55.5316 114.847 55.5316H116.317C116.387 55.5343 116.454 55.5563 116.513 55.5951C116.571 55.6339 116.617 55.6881 116.647 55.7516C116.857 56.2916 117.407 56.5616 118.287 56.5616C118.594 56.5756 118.899 56.5138 119.177 56.3816C119.272 56.3383 119.355 56.2699 119.414 56.1836C119.474 56.0973 119.51 55.9964 119.517 55.8916C119.517 55.6316 119.357 55.4516 119.037 55.3316C118.657 55.2052 118.265 55.1214 117.867 55.0816C117.395 55.0282 116.927 54.9447 116.467 54.8316C116.018 54.7301 115.611 54.4968 115.297 54.1616C115.112 53.9337 114.975 53.6703 114.896 53.3875C114.817 53.1048 114.798 52.8089 114.838 52.5181C114.878 52.2273 114.978 51.948 115.131 51.6974C115.284 51.4468 115.487 51.2304 115.727 51.0616C116.447 50.6024 117.293 50.3787 118.147 50.4216C118.973 50.3936 119.791 50.598 120.507 51.0116C120.795 51.175 121.044 51.4007 121.234 51.6723C121.424 51.9439 121.552 52.2545 121.607 52.5816C121.607 52.7816 121.517 52.8816 121.337 52.8816H119.857C119.794 52.8852 119.732 52.87 119.679 52.8379C119.625 52.8058 119.583 52.7583 119.557 52.7016C119.458 52.4647 119.272 52.2749 119.037 52.1716C118.772 52.0329 118.476 51.9641 118.177 51.9716C117.884 51.9556 117.591 52.0141 117.327 52.1416C117.233 52.1775 117.153 52.2405 117.096 52.3225C117.039 52.4045 117.008 52.5017 117.007 52.6016C117.013 52.7383 117.063 52.8694 117.149 52.9756C117.236 53.0818 117.354 53.1575 117.487 53.1916C117.871 53.3363 118.27 53.4369 118.677 53.4916C119.144 53.5531 119.608 53.6399 120.067 53.7516C120.515 53.853 120.922 54.0864 121.237 54.4216C121.405 54.6062 121.535 54.8224 121.619 55.0575C121.703 55.2927 121.74 55.5422 121.727 55.7916C121.735 56.1372 121.654 56.4793 121.491 56.7842C121.328 57.0892 121.089 57.3467 120.797 57.5316C120.049 58.0112 119.174 58.2519 118.287 58.2216Z" fill="white"/>
<path d="M132.297 57.7215C132.303 57.757 132.301 57.7933 132.293 57.8283C132.284 57.8632 132.269 57.896 132.247 57.9249C132.226 57.9538 132.199 57.9781 132.168 57.9964C132.137 58.0147 132.103 58.0267 132.067 58.0315C131.702 58.1507 131.321 58.2148 130.937 58.2215C130.557 58.2609 130.173 58.2015 129.823 58.0491C129.473 57.8967 129.168 57.6564 128.937 57.3515C128.231 57.9588 127.317 58.2704 126.387 58.2215C125.955 58.2414 125.524 58.1708 125.121 58.014C124.718 57.8573 124.352 57.618 124.047 57.3115C123.744 56.9904 123.509 56.6114 123.356 56.1973C123.203 55.7832 123.136 55.3425 123.157 54.9015V50.9915C123.157 50.8015 123.247 50.7015 123.437 50.7015H125.117C125.307 50.7015 125.397 50.8015 125.397 50.9915V54.6015C125.379 55.0513 125.533 55.4911 125.827 55.8315C125.974 55.9875 126.153 56.1101 126.351 56.1912C126.55 56.2723 126.763 56.3099 126.977 56.3015C127.196 56.3111 127.415 56.2772 127.621 56.2017C127.827 56.1261 128.016 56.0105 128.177 55.8615C128.33 55.7045 128.448 55.5179 128.526 55.3132C128.603 55.1085 128.638 54.8901 128.627 54.6715V50.9915C128.627 50.8015 128.717 50.7015 128.907 50.7015H130.607C130.797 50.7015 130.887 50.8015 130.887 50.9915V55.7015C130.887 56.0915 131.057 56.2815 131.387 56.2815C131.542 56.2875 131.697 56.2707 131.847 56.2315C131.885 56.2209 131.925 56.219 131.963 56.226C132.002 56.2329 132.039 56.2485 132.07 56.2716C132.102 56.2947 132.128 56.3247 132.147 56.3593C132.165 56.3939 132.176 56.4323 132.177 56.4715L132.297 57.7215Z" fill="white"/>
<path d="M148.186 57.7215C148.195 57.7574 148.196 57.7947 148.189 57.8309C148.182 57.8671 148.166 57.9012 148.145 57.9308C148.123 57.9605 148.094 57.9849 148.062 58.0023C148.029 58.0197 147.993 58.0297 147.956 58.0315C147.585 58.1524 147.197 58.2165 146.806 58.2215C146.212 58.2522 145.624 58.0833 145.136 57.7415C144.926 57.5952 144.754 57.399 144.637 57.1705C144.52 56.942 144.462 56.6882 144.466 56.4315V54.0815C144.487 53.6331 144.337 53.1934 144.046 52.8515C143.906 52.6953 143.733 52.572 143.539 52.4908C143.345 52.4095 143.136 52.3722 142.926 52.3815C142.737 52.3744 142.549 52.4103 142.376 52.4865C142.203 52.5627 142.049 52.6773 141.926 52.8215C141.662 53.1566 141.528 53.5754 141.546 54.0015V57.6915C141.546 57.8815 141.456 57.9815 141.266 57.9815H139.576C139.537 57.9864 139.497 57.9823 139.46 57.9694C139.422 57.9565 139.388 57.9353 139.361 57.9074C139.333 57.8794 139.311 57.8454 139.298 57.808C139.286 57.7706 139.281 57.7308 139.286 57.6915V54.0815C139.308 53.638 139.17 53.2015 138.896 52.8515C138.774 52.7046 138.622 52.5862 138.449 52.505C138.276 52.4238 138.087 52.3816 137.896 52.3815C137.692 52.3733 137.489 52.4083 137.299 52.4841C137.11 52.5599 136.938 52.6749 136.796 52.8215C136.51 53.1459 136.363 53.5697 136.386 54.0015V57.6915C136.391 57.7308 136.387 57.7706 136.374 57.808C136.361 57.8454 136.34 57.8794 136.312 57.9074C136.284 57.9353 136.25 57.9565 136.213 57.9694C136.175 57.9823 136.136 57.9864 136.096 57.9815H134.466C134.276 57.9815 134.186 57.8815 134.186 57.6915V52.9815C134.198 52.9013 134.191 52.8195 134.165 52.7425C134.14 52.6656 134.097 52.5957 134.04 52.5383C133.982 52.481 133.912 52.4379 133.835 52.4124C133.758 52.3869 133.677 52.3798 133.596 52.3915H133.266C133.046 52.3915 132.936 52.3115 132.936 52.1515V50.9715C132.931 50.8985 132.951 50.8259 132.993 50.7659C133.035 50.7058 133.096 50.662 133.166 50.6415C133.512 50.5158 133.878 50.4548 134.246 50.4615C134.6 50.4315 134.954 50.5019 135.269 50.6646C135.584 50.8274 135.847 51.076 136.026 51.3815C136.364 51.0618 136.763 50.815 137.2 50.6568C137.637 50.4985 138.102 50.432 138.566 50.4615C139.017 50.4396 139.466 50.5241 139.878 50.7082C140.29 50.8924 140.652 51.171 140.936 51.5215C141.267 51.1619 141.674 50.8802 142.127 50.6969C142.58 50.5135 143.068 50.4332 143.556 50.4615C143.993 50.4411 144.429 50.5114 144.837 50.6681C145.245 50.8247 145.616 51.0642 145.926 51.3715C146.23 51.692 146.466 52.0709 146.619 52.4852C146.772 52.8995 146.839 53.3405 146.816 53.7815V55.7115C146.816 56.0915 146.986 56.2815 147.306 56.2815C147.461 56.2888 147.617 56.2719 147.766 56.2315C147.973 56.2315 148.083 56.3115 148.096 56.4715L148.186 57.7215Z" fill="white"/>
<path d="M30.9266 49.4015C31.6644 46.4362 33.373 43.8029 35.7805 41.9211C38.188 40.0392 41.1559 39.0168 44.2116 39.0168C47.2673 39.0168 50.2352 40.0392 52.6427 41.9211C55.0502 43.8029 56.7588 46.4362 57.4966 49.4015H56.2966C54.2723 49.3717 52.2895 49.9767 50.6266 51.1315C50.5306 51.201 50.4304 51.2645 50.3266 51.3215H50.1866C50.0828 51.2645 49.9826 51.201 49.8866 51.1315C48.209 50.0034 46.2332 49.4009 44.2116 49.4009C42.19 49.4009 40.2142 50.0034 38.5366 51.1315C38.4406 51.201 38.3404 51.2645 38.2366 51.3215H38.0966C37.9928 51.2645 37.8926 51.201 37.7966 51.1315C36.1337 49.9767 34.1509 49.3717 32.1266 49.4015H30.9266ZM54.1366 55.6715C54.7526 55.1918 55.5161 54.9408 56.2966 54.9615H57.9066V51.7515H56.2966C54.9218 51.7349 53.5785 52.1628 52.4666 52.9715C51.8409 53.4328 51.084 53.6817 50.3066 53.6817C49.5292 53.6817 48.7723 53.4328 48.1466 52.9715C47.0065 52.1779 45.6507 51.7525 44.2616 51.7525C42.8725 51.7525 41.5167 52.1779 40.3766 52.9715C39.7509 53.4328 38.994 53.6817 38.2166 53.6817C37.4392 53.6817 36.6823 53.4328 36.0566 52.9715C34.931 52.1525 33.5684 51.724 32.1766 51.7515H30.5166V54.9615H32.1266C32.9071 54.9408 33.6706 55.1918 34.2866 55.6715C35.4246 56.4657 36.7789 56.8915 38.1666 56.8915C39.5543 56.8915 40.9086 56.4657 42.0466 55.6715C42.6634 55.1933 43.4263 54.9425 44.2066 54.9615C44.9874 54.9392 45.7514 55.1903 46.3666 55.6715C47.5067 56.4652 48.8625 56.8906 50.2516 56.8906C51.6407 56.8906 52.9965 56.4652 54.1366 55.6715ZM54.1366 61.4115C54.7526 60.9318 55.5161 60.6808 56.2966 60.7015H57.9066V57.4915H56.2966C54.9218 57.4749 53.5785 57.9028 52.4666 58.7115C51.8409 59.1728 51.084 59.4217 50.3066 59.4217C49.5292 59.4217 48.7723 59.1728 48.1466 58.7115C47.0065 57.9179 45.6507 57.4925 44.2616 57.4925C42.8725 57.4925 41.5167 57.9179 40.3766 58.7115C39.7509 59.1728 38.994 59.4217 38.2166 59.4217C37.4392 59.4217 36.6823 59.1728 36.0566 58.7115C34.931 57.8925 33.5684 57.464 32.1766 57.4915H30.5166V60.7015H32.1266C32.9071 60.6808 33.6706 60.9318 34.2866 61.4115C35.4246 62.2057 36.7789 62.6315 38.1666 62.6315C39.5543 62.6315 40.9086 62.2057 42.0466 61.4115C42.6634 60.9333 43.4263 60.6825 44.2066 60.7015C44.9874 60.6792 45.7514 60.9303 46.3666 61.4115C47.5067 62.2052 48.8625 62.6306 50.2516 62.6306C51.6407 62.6306 52.9965 62.2052 54.1366 61.4115Z" fill="white"/>
</svg>
