<svg width="179" height="101" viewBox="0 0 179 101" fill="none" xmlns="http://www.w3.org/2000/svg">
<path d="M41.7022 49.2026C41.3233 49.5838 41.033 50.044 40.8522 50.5503C40.6714 51.0566 40.6045 51.5965 40.6562 52.1316L40.6382 52.1136C40.6914 52.7434 40.6065 53.3773 40.3894 53.9709C40.1723 54.5646 39.8282 55.1037 39.3813 55.5506C38.9343 55.9976 38.3952 56.3416 37.8016 56.5587C37.2079 56.7758 36.5741 56.8607 35.9442 56.8076L35.9622 56.8256C35.2088 56.7554 34.4521 56.9194 33.7953 57.2951C33.1384 57.6708 32.6135 58.2399 32.2919 58.9249C31.9704 59.6098 31.868 60.3773 31.9986 61.1226C32.1292 61.8679 32.4865 62.5548 33.0218 63.0896C33.5571 63.6245 34.2443 63.9811 34.9898 64.1111C35.7352 64.241 36.5026 64.1379 37.1872 63.8158C37.8719 63.4936 38.4406 62.9681 38.8157 62.3109C39.1908 61.6538 39.354 60.8969 39.2832 60.1436L39.3022 60.1616C39.2491 59.5317 39.334 58.8978 39.5511 58.3042C39.7682 57.7106 40.1122 57.1714 40.5592 56.7245C41.0061 56.2775 41.5452 55.9335 42.1389 55.7164C42.7325 55.4993 43.3664 55.4144 43.9962 55.4676L43.9772 55.4496C44.5927 55.5049 45.2121 55.404 45.7782 55.1562C46.3443 54.9084 46.8386 54.5217 47.2155 54.032C47.5923 53.5422 47.8394 52.9653 47.9339 52.3546C48.0284 51.744 47.9672 51.1193 47.756 50.5386C47.5447 49.9579 47.1904 49.4399 46.7257 49.0326C46.261 48.6253 45.7009 48.3419 45.0976 48.2087C44.4942 48.0754 43.8669 48.0967 43.2739 48.2704C42.6809 48.4441 42.1413 48.7648 41.7052 49.2026H41.7022Z" fill="white"/>
<path d="M34.3254 54.4675L34.3064 54.4495C34.8417 54.5035 35.3823 54.4378 35.8891 54.2572C36.396 54.0766 36.8563 53.7856 37.2369 53.4053C37.6175 53.025 37.9088 52.5649 38.0898 52.0582C38.2708 51.5515 38.3369 51.0109 38.2834 50.4755L38.3024 50.4935C38.2492 49.8637 38.3341 49.2298 38.5512 48.6362C38.7683 48.0425 39.1123 47.5034 39.5593 47.0565C40.0062 46.6095 40.5454 46.2655 41.139 46.0484C41.7326 45.8313 42.3665 45.7464 42.9964 45.7995L42.9774 45.7815C43.7308 45.8523 44.4878 45.6889 45.145 45.3136C45.8022 44.9384 46.3277 44.3695 46.6497 43.6846C46.9717 42.9998 47.0746 42.2322 46.9444 41.4867C46.8141 40.7412 46.4571 40.0541 45.922 39.5189C45.3868 38.9838 44.6997 38.6267 43.9542 38.4965C43.2086 38.3663 42.4411 38.4692 41.7562 38.7912C41.0714 39.1132 40.5025 39.6387 40.1273 40.2959C39.752 40.9531 39.5886 41.7101 39.6594 42.4635L39.6414 42.4445C39.6947 43.0744 39.6099 43.7084 39.3929 44.3021C39.1758 44.8958 38.8318 45.435 38.3848 45.882C37.9378 46.329 37.3986 46.673 36.8049 46.89C36.2112 47.1071 35.5772 47.1919 34.9474 47.1385L34.9654 47.1575C34.43 47.1036 33.8894 47.1693 33.3826 47.3499C32.8757 47.5305 32.4154 47.8215 32.0348 48.2018C31.6542 48.5821 31.3629 49.0422 31.1819 49.5489C31.0009 50.0556 30.9348 50.5962 30.9884 51.1315L30.9704 51.1135C31.0233 51.7434 30.9383 52.3771 30.7211 52.9707C30.504 53.5643 30.1599 54.1033 29.713 54.5502C29.2661 54.9971 28.7271 55.3412 28.1335 55.5583C27.54 55.7755 26.9062 55.8605 26.2764 55.8075L26.2944 55.8255C25.5409 55.7548 24.7839 55.9182 24.1267 56.2934C23.4695 56.6687 22.944 57.2376 22.622 57.9224C22.3 58.6073 22.1971 59.3748 22.3273 60.1203C22.4576 60.8658 22.8146 61.553 23.3497 62.0882C23.8849 62.6233 24.572 62.9803 25.3176 63.1106C26.0631 63.2408 26.8306 63.1379 27.5155 62.8159C28.2003 62.4938 28.7692 61.9684 29.1445 61.3112C29.5197 60.654 29.6831 59.897 29.6124 59.1435L29.6314 59.1615C29.5782 58.5317 29.6631 57.8978 29.8802 57.3042C30.0973 56.7105 30.4413 56.1714 30.8883 55.7245C31.3352 55.2775 31.8744 54.9335 32.468 54.7164C33.0616 54.4993 33.6955 54.4144 34.3254 54.4675Z" fill="white"/>
<path d="M27.6234 52.4605C28.0024 52.0793 28.2926 51.6191 28.4733 51.1128C28.6539 50.6065 28.7205 50.0666 28.6684 49.5315L28.6874 49.5495C28.6342 48.9195 28.7192 48.2855 28.9364 47.6917C29.1536 47.0979 29.4978 46.5586 29.945 46.1117C30.3922 45.6647 30.9315 45.3207 31.5254 45.1037C32.1193 44.8868 32.7534 44.8021 33.3834 44.8555L33.3644 44.8375C34.1176 44.9081 34.8743 44.7446 35.5312 44.3694C36.1881 43.9942 36.7133 43.4254 37.0351 42.7408C37.3569 42.0561 37.4597 41.2889 37.3295 40.5436C37.1993 39.7984 36.8424 39.1115 36.3074 38.5765C35.7725 38.0416 35.0856 37.6847 34.3403 37.5545C33.5951 37.4242 32.8278 37.527 32.1432 37.8489C31.4585 38.1707 30.8898 38.6959 30.5146 39.3528C30.1393 40.0097 29.9758 40.7663 30.0464 41.5195L30.0284 41.5015C30.0816 42.1314 29.9967 42.7653 29.7796 43.3589C29.5625 43.9525 29.2184 44.4917 28.7715 44.9386C28.3245 45.3856 27.7854 45.7296 27.1918 45.9467C26.5981 46.1638 25.9643 46.2487 25.3344 46.1955L25.3524 46.2135C24.737 46.1584 24.1176 46.2594 23.5516 46.5073C22.9856 46.7552 22.4914 47.142 22.1147 47.6318C21.738 48.1216 21.491 48.6985 21.3966 49.3092C21.3022 49.9198 21.3635 50.5444 21.5748 51.1251C21.7861 51.7057 22.1405 52.2237 22.6052 52.6309C23.0699 53.0381 23.6299 53.3214 24.2333 53.4546C24.8367 53.5878 25.4639 53.5665 26.0569 53.3927C26.6498 53.219 27.1894 52.8983 27.6254 52.4605H27.6234Z" fill="white"/>
<path d="M58.6006 42.4865H61.5706V56.9395H58.6006V42.4865Z" fill="white"/>
<path d="M63.2521 51.9905C63.2479 50.9519 63.5521 49.9354 64.1261 49.0698C64.7002 48.2041 65.5182 47.5283 66.4766 47.128C67.4349 46.7276 68.4906 46.6207 69.5098 46.8208C70.529 47.0209 71.4659 47.519 72.2018 48.2519C72.9377 48.9849 73.4395 49.9198 73.6437 50.9381C73.8478 51.9565 73.7452 53.0126 73.3487 53.9726C72.9522 54.9326 72.2797 55.7533 71.4163 56.3308C70.553 56.9083 69.5377 57.2165 68.4991 57.2165C67.8096 57.2244 67.1255 57.0947 66.4868 56.8352C65.848 56.5756 65.2674 56.1913 64.7788 55.7047C64.2903 55.2181 63.9037 54.639 63.6415 54.0013C63.3794 53.3636 63.247 52.68 63.2521 51.9905ZM70.7761 51.9905C70.7637 51.5428 70.6196 51.1087 70.3619 50.7425C70.1041 50.3762 69.7441 50.0941 69.3268 49.9313C68.9096 49.7685 68.4536 49.7324 68.0159 49.8273C67.5783 49.9223 67.1783 50.1442 66.866 50.4652C66.5537 50.7863 66.343 51.1922 66.2602 51.6324C66.1774 52.0725 66.2262 52.5273 66.4005 52.9399C66.5747 53.3525 66.8668 53.7045 67.24 53.9521C67.6133 54.1996 68.0512 54.3316 68.4991 54.3315C68.8058 54.3397 69.1109 54.2843 69.3951 54.1687C69.6794 54.0531 69.9365 53.8798 70.1505 53.6599C70.3644 53.4399 70.5305 53.1781 70.6381 52.8907C70.7458 52.6034 70.7928 52.2969 70.7761 51.9905Z" fill="white"/>
<path d="M85.5831 47.0405V56.4405C85.5831 59.7666 82.9891 61.1725 80.3561 61.1725C79.4291 61.2419 78.5008 61.0547 77.6732 60.6313C76.8455 60.208 76.1504 59.5649 75.6641 58.7726L78.1981 57.3076C78.4025 57.7206 78.7282 58.0613 79.1315 58.2841C79.5349 58.507 79.9967 58.6013 80.4551 58.5545C80.7481 58.5951 81.0465 58.5693 81.3282 58.4791C81.6099 58.3888 81.8676 58.2363 82.0824 58.0329C82.2972 57.8296 82.4635 57.5805 82.5691 57.3042C82.6746 57.0278 82.7167 56.7313 82.6921 56.4365V55.5315C82.3444 55.9571 81.9017 56.2952 81.3996 56.5187C80.8975 56.7422 80.3501 56.8449 79.8011 56.8185C78.4949 56.7774 77.256 56.2295 76.3466 55.291C75.4372 54.3525 74.9287 53.0969 74.9287 51.79C74.9287 50.4832 75.4372 49.2276 76.3466 48.2891C77.256 47.3506 78.4949 46.8027 79.8011 46.7615C80.3501 46.7352 80.8975 46.8379 81.3996 47.0614C81.9017 47.2849 82.3444 47.623 82.6921 48.0485V47.0385L85.5831 47.0405ZM82.6931 51.7915C82.7131 51.3129 82.5894 50.8392 82.3378 50.4315C82.0863 50.0238 81.7185 49.7007 81.2818 49.5037C80.8451 49.3068 80.3595 49.2451 79.8874 49.3265C79.4153 49.4079 78.9784 49.6287 78.6328 49.9605C78.2873 50.2923 78.049 50.72 77.9485 51.1884C77.8481 51.6568 77.8902 52.1445 78.0693 52.5889C78.2484 53.0332 78.5564 53.4137 78.9536 53.6815C79.3508 53.9493 79.8191 54.0921 80.2981 54.0915C80.6102 54.1133 80.9233 54.0695 81.2174 53.9629C81.5115 53.8563 81.78 53.6893 82.0056 53.4726C82.2313 53.256 82.409 52.9944 82.5274 52.7049C82.6458 52.4154 82.7023 52.1042 82.6931 51.7915Z" fill="white"/>
<path d="M87.2648 51.9905C87.2606 50.9519 87.5648 49.9354 88.1388 49.0698C88.7129 48.2041 89.5309 47.5283 90.4893 47.128C91.4476 46.7276 92.5033 46.6207 93.5225 46.8208C94.5417 47.0209 95.4786 47.519 96.2145 48.2519C96.9504 48.9849 97.4522 49.9198 97.6564 50.9381C97.8605 51.9565 97.7579 53.0126 97.3614 53.9726C96.9649 54.9326 96.2923 55.7533 95.429 56.3308C94.5657 56.9083 93.5504 57.2165 92.5118 57.2165C91.8223 57.2244 91.1382 57.0947 90.4995 56.8352C89.8607 56.5756 89.2801 56.1913 88.7915 55.7047C88.303 55.2181 87.9164 54.639 87.6542 54.0013C87.3921 53.3636 87.2597 52.68 87.2648 51.9905ZM94.7888 51.9905C94.7764 51.5428 94.6323 51.1087 94.3746 50.7425C94.1168 50.3762 93.7568 50.0941 93.3395 49.9313C92.9223 49.7685 92.4663 49.7324 92.0286 49.8273C91.591 49.9223 91.191 50.1442 90.8787 50.4652C90.5664 50.7863 90.3557 51.1922 90.2729 51.6324C90.1901 52.0725 90.2389 52.5273 90.4132 52.9399C90.5874 53.3525 90.8795 53.7045 91.2527 53.9521C91.626 54.1996 92.0639 54.3316 92.5118 54.3315C92.8185 54.3397 93.1236 54.2843 93.4078 54.1687C93.692 54.0531 93.9492 53.8798 94.1632 53.6599C94.3771 53.4399 94.5431 53.1781 94.6508 52.8907C94.7585 52.6034 94.8055 52.2969 94.7888 51.9905Z" fill="white"/>
<path d="M99.1445 44.3875C99.1445 44.0351 99.249 43.6906 99.4449 43.3975C99.6407 43.1045 99.919 42.8761 100.245 42.7412C100.57 42.6063 100.929 42.571 101.274 42.6398C101.62 42.7085 101.937 42.8783 102.187 43.1275C102.436 43.3767 102.606 43.6942 102.674 44.0399C102.743 44.3856 102.708 44.7439 102.573 45.0695C102.438 45.3951 102.21 45.6734 101.917 45.8692C101.624 46.065 101.279 46.1695 100.927 46.1695C100.455 46.1648 100.005 45.9756 99.6716 45.6424C99.3385 45.3092 99.1492 44.8587 99.1445 44.3875ZM99.4445 47.0405H102.416V56.9405H99.4405L99.4445 47.0405Z" fill="white"/>
<path d="M115.239 51.9905C115.273 52.6448 115.178 53.2994 114.958 53.9167C114.739 54.534 114.399 55.1018 113.96 55.5875C113.52 56.0732 112.988 56.4671 112.396 56.7467C111.803 57.0263 111.161 57.1859 110.507 57.2165C109.957 57.2466 109.406 57.1538 108.896 56.9448C108.386 56.7359 107.929 56.4161 107.558 56.0085V60.8995H104.588V47.0405H107.558V47.9705C107.929 47.5633 108.386 47.2438 108.896 47.035C109.407 46.8263 109.957 46.7335 110.507 46.7635C111.161 46.794 111.804 46.9536 112.396 47.2332C112.989 47.5128 113.52 47.9068 113.96 48.3926C114.4 48.8784 114.739 49.4464 114.959 50.0639C115.178 50.6814 115.273 51.3362 115.239 51.9905ZM112.269 51.9905C112.257 51.5272 112.109 51.0776 111.843 50.698C111.578 50.3184 111.206 50.0256 110.774 49.8563C110.343 49.687 109.871 49.6488 109.418 49.7463C108.965 49.8439 108.55 50.0729 108.227 50.4047C107.903 50.7365 107.685 51.1564 107.599 51.6118C107.513 52.0672 107.563 52.5379 107.743 52.9649C107.923 53.392 108.225 53.7565 108.611 54.0127C108.997 54.2689 109.45 54.4056 109.914 54.4055C110.232 54.4197 110.55 54.3664 110.846 54.2493C111.142 54.1321 111.41 53.9536 111.632 53.7256C111.855 53.4976 112.026 53.2251 112.136 52.9261C112.246 52.6271 112.291 52.3083 112.269 51.9905Z" fill="white"/>
<path d="M124.404 53.9696C124.404 56.2466 122.425 57.2165 120.287 57.2165C119.423 57.2948 118.556 57.1121 117.797 56.6921C117.038 56.2721 116.423 55.6341 116.03 54.8605L118.603 53.3955C118.707 53.7531 118.931 54.0641 119.237 54.2767C119.542 54.4893 119.912 54.5905 120.283 54.5635C120.995 54.5635 121.352 54.3455 121.352 53.9505C121.352 52.8605 116.481 53.4356 116.481 50.0106C116.481 47.8516 118.303 46.7635 120.362 46.7635C121.136 46.7391 121.903 46.9226 122.582 47.2952C123.261 47.6677 123.827 48.2155 124.222 48.8815L121.688 50.2476C121.577 49.9882 121.392 49.7674 121.156 49.6125C120.921 49.4576 120.644 49.3755 120.362 49.3765C119.847 49.3765 119.53 49.5765 119.53 49.9305C119.534 51.0595 124.404 50.3066 124.404 53.9696Z" fill="white"/>
<path d="M135.253 47.0405V56.9405H132.283V56.0095C131.94 56.4203 131.505 56.744 131.013 56.954C130.521 57.164 129.987 57.2543 129.453 57.2175C127.453 57.2175 125.753 55.7925 125.753 53.1175V47.0405H128.723V52.6825C128.698 52.9183 128.725 53.1567 128.802 53.381C128.878 53.6054 129.003 53.8104 129.167 53.9817C129.331 54.153 129.53 54.2866 129.751 54.3731C129.971 54.4596 130.208 54.4969 130.445 54.4825C131.534 54.4825 132.286 53.8495 132.286 52.4435V47.0435L135.253 47.0405Z" fill="white"/>
<path d="M152.284 50.8616V56.9396H149.314V51.1186C149.314 50.1286 148.839 49.4956 147.889 49.4956C146.899 49.4956 146.344 50.1886 146.344 51.3566V56.9396H143.375V51.1186C143.375 50.1286 142.9 49.4956 141.949 49.4956C140.959 49.4956 140.405 50.1886 140.405 51.3566V56.9396H137.435V47.0396H140.405V47.9496C140.712 47.5458 141.117 47.2257 141.58 47.0183C142.043 46.811 142.551 46.7231 143.058 46.7626C143.566 46.7377 144.072 46.8449 144.526 47.0738C144.981 47.3027 145.368 47.6454 145.651 48.0686C145.98 47.6259 146.416 47.2739 146.918 47.0455C147.42 46.8171 147.972 46.7197 148.522 46.7626C150.795 46.7636 152.284 48.3866 152.284 50.8616Z" fill="white"/>
<path d="M154.795 46.9795C156.012 46.9795 156.999 45.9928 156.999 44.7755C156.999 43.5583 156.012 42.5715 154.795 42.5715C153.578 42.5715 152.591 43.5583 152.591 44.7755C152.591 45.9928 153.578 46.9795 154.795 46.9795Z" fill="white"/>
</svg>
