<svg width="178" height="101" viewBox="0 0 178 101" fill="none" xmlns="http://www.w3.org/2000/svg">
<path d="M53.8391 46.5415C54.1991 46.5415 54.3191 46.6715 54.3191 47.0215V54.9415H58.3891C58.7391 54.9415 58.8691 55.0715 58.8691 55.4215V56.1215C58.8691 56.4715 58.7391 56.6015 58.3891 56.6015H53.0291C52.6791 56.6015 52.5391 56.4715 52.5391 56.1215V47.0215C52.5391 46.6715 52.6791 46.5415 53.0291 46.5415H53.8391Z" fill="white"/>
<path d="M62.4189 50.0315C62.4189 47.7215 63.8789 46.3315 66.4189 46.3315C68.9589 46.3315 70.4189 47.7215 70.4189 50.0315V53.1115C70.4189 55.4215 68.9489 56.8115 66.4189 56.8115C63.8889 56.8115 62.4189 55.4215 62.4189 53.1115V50.0315ZM68.7389 50.0315C68.7389 48.7315 67.9289 48.0315 66.4689 48.0315C65.0089 48.0315 64.2089 48.7415 64.2089 50.0315V53.1315C64.2089 54.4415 65.0089 55.1315 66.4689 55.1315C67.9289 55.1315 68.7389 54.4115 68.7389 53.1315V50.0315Z" fill="white"/>
<path d="M82.329 51.0915C82.719 51.0915 82.809 51.2215 82.809 51.5715V53.4715C82.8196 53.9191 82.7299 54.3633 82.5465 54.7717C82.3631 55.18 82.0906 55.5422 81.749 55.8315C80.9007 56.507 79.8311 56.8422 78.749 56.7715C76.159 56.7715 74.749 55.3815 74.749 53.0715V49.9715C74.749 47.6915 76.209 46.2915 78.749 46.2915C80.749 46.2915 82.049 47.0815 82.599 48.6615C82.6298 48.7209 82.6463 48.7866 82.6472 48.8535C82.6481 48.9203 82.6334 48.9865 82.6043 49.0467C82.5752 49.1069 82.5324 49.1594 82.4794 49.2002C82.4264 49.241 82.3647 49.2688 82.299 49.2815L81.519 49.5515C81.179 49.6715 81.039 49.6015 80.919 49.2515C80.7534 48.8244 80.4501 48.4647 80.0571 48.2292C79.6641 47.9938 79.2038 47.8961 78.749 47.9515C77.279 47.9515 76.479 48.6615 76.479 49.9515V53.1315C76.479 54.4415 77.289 55.1315 78.749 55.1315C80.209 55.1315 81.109 54.4615 81.109 53.4815V52.7415H78.939C78.579 52.7415 78.449 52.6015 78.449 52.2515V51.5715C78.449 51.2215 78.579 51.0915 78.939 51.0915H82.329Z" fill="white"/>
<path d="M86.9395 50.0315C86.9395 47.7215 88.3995 46.3315 90.9395 46.3315C93.4795 46.3315 94.9395 47.7215 94.9395 50.0315V53.1115C94.9395 55.4215 93.4695 56.8115 90.9395 56.8115C88.4095 56.8115 86.9395 55.4215 86.9395 53.1115V50.0315ZM93.2495 50.0315C93.2495 48.7315 92.4394 48.0315 90.9894 48.0315C89.5394 48.0315 88.7195 48.7415 88.7195 50.0315V53.1315C88.7195 54.4415 89.5294 55.1315 90.9894 55.1315C92.4494 55.1315 93.2495 54.4115 93.2495 53.1315V50.0315Z" fill="white"/>
<path d="M99.6494 46.8315C99.6494 46.6115 99.7194 46.5415 99.9394 46.5415H100.399C100.619 46.5415 100.669 46.6115 100.669 46.8315V56.3115C100.669 56.5315 100.669 56.6015 100.399 56.6015H99.9394C99.7194 56.6015 99.6494 56.5315 99.6494 56.3115V46.8315Z" fill="white"/>
<path d="M109.78 46.5415C110.613 46.5415 111.411 46.8724 112 47.4612C112.589 48.0501 112.92 48.8488 112.92 49.6815C112.92 50.5143 112.589 51.313 112 51.9019C111.411 52.4907 110.613 52.8215 109.78 52.8215H106.78V56.3115C106.78 56.5315 106.73 56.6015 106.52 56.6015H106.05C105.84 56.6015 105.76 56.5315 105.76 56.3115V46.8315C105.76 46.6115 105.84 46.5415 106.05 46.5415H109.78ZM109.69 51.8315C109.976 51.8315 110.26 51.7751 110.524 51.6656C110.789 51.556 111.029 51.3955 111.231 51.193C111.434 50.9906 111.594 50.7503 111.704 50.4858C111.813 50.2213 111.87 49.9378 111.87 49.6515C111.87 49.3653 111.813 49.0818 111.704 48.8173C111.594 48.5528 111.434 48.3125 111.231 48.11C111.029 47.9076 110.789 47.747 110.524 47.6375C110.26 47.5279 109.976 47.4715 109.69 47.4715H106.69V51.8315H109.69Z" fill="white"/>
<path d="M120.73 46.3416C121.502 46.2563 122.281 46.4224 122.951 46.8152C123.621 47.2079 124.147 47.8063 124.45 48.5216C124.53 48.6816 124.45 48.8116 124.29 48.8916L123.85 49.0916C123.67 49.1616 123.6 49.1516 123.49 48.9616C123.263 48.4307 122.874 47.9857 122.377 47.6909C121.881 47.3961 121.304 47.2667 120.73 47.3216C119.04 47.3216 118.12 47.9916 118.12 49.1916C118.11 49.5583 118.233 49.9162 118.466 50.1992C118.7 50.4823 119.028 50.6713 119.39 50.7316C119.927 50.907 120.485 51.0145 121.05 51.0516C121.733 51.088 122.407 51.2262 123.05 51.4616C123.542 51.6174 123.966 51.9381 124.25 52.3697C124.534 52.8012 124.661 53.3175 124.61 53.8316C124.61 55.7016 123.25 56.8316 120.75 56.8316C119.93 56.9254 119.102 56.7353 118.405 56.2932C117.708 55.851 117.184 55.1834 116.92 54.4016C116.902 54.3659 116.892 54.3268 116.892 54.287C116.891 54.2473 116.899 54.2078 116.915 54.1715C116.931 54.1352 116.955 54.1029 116.986 54.077C117.016 54.0511 117.051 54.0322 117.09 54.0216L117.53 53.8616C117.564 53.8474 117.602 53.8406 117.639 53.8416C117.676 53.8426 117.713 53.8514 117.747 53.8674C117.781 53.8833 117.811 53.9062 117.836 53.9345C117.86 53.9627 117.879 53.9958 117.89 54.0316C118.113 54.5965 118.511 55.0755 119.025 55.3991C119.54 55.7228 120.144 55.8742 120.75 55.8316C122.64 55.8316 123.57 55.1716 123.57 53.8316C123.587 53.4793 123.479 53.1322 123.265 52.8521C123.051 52.5719 122.744 52.3769 122.4 52.3016C121.882 52.1472 121.349 52.0532 120.81 52.0216L119.73 51.8816C119.392 51.8098 119.058 51.7197 118.73 51.6116C118.405 51.5136 118.103 51.3541 117.84 51.1416C117.574 50.9013 117.365 50.6057 117.227 50.2756C117.089 49.9456 117.025 49.5891 117.04 49.2316C117.11 47.4816 118.42 46.3416 120.73 46.3416Z" fill="white"/>
<path d="M130 53.1815C130.042 53.8887 130.353 54.553 130.869 55.0387C131.385 55.5244 132.066 55.7949 132.775 55.7949C133.483 55.7949 134.165 55.5244 134.681 55.0387C135.196 54.553 135.507 53.8887 135.55 53.1815V46.8315C135.55 46.6115 135.62 46.5415 135.84 46.5415H136.3C136.52 46.5415 136.59 46.6115 136.59 46.8315V53.1715C136.59 55.4415 135.25 56.8115 132.78 56.8115C130.31 56.8115 128.97 55.4415 128.97 53.1715V46.8315C128.97 46.6115 129.04 46.5415 129.25 46.5415H129.72C129.93 46.5415 130 46.6115 130 46.8315V53.1815Z" fill="white"/>
<path d="M150.39 46.5416C150.61 46.5416 150.68 46.6116 150.68 46.8316V56.3116C150.68 56.5316 150.61 56.6016 150.39 56.6016H149.97C149.76 56.6016 149.69 56.5316 149.69 56.3116V50.5416C149.689 49.702 149.746 48.8634 149.86 48.0316H149.8C149.487 48.7923 149.123 49.5306 148.71 50.2416L146.56 54.0316C146.533 54.0973 146.488 54.1535 146.429 54.1928C146.37 54.2321 146.3 54.2526 146.23 54.2516H145.95C145.878 54.2519 145.807 54.2313 145.747 54.1922C145.686 54.1531 145.639 54.0973 145.61 54.0316L143.43 50.2016C143.042 49.5008 142.708 48.7721 142.43 48.0216H142.37C142.472 48.8611 142.525 49.7058 142.53 50.5516V56.3116C142.53 56.5316 142.46 56.6016 142.24 56.6016H141.85C141.63 56.6016 141.56 56.5316 141.56 56.3116V46.8316C141.56 46.6116 141.63 46.5416 141.85 46.5416H142.21C142.292 46.5339 142.374 46.5519 142.446 46.5931C142.518 46.6342 142.575 46.6966 142.61 46.7716L146.11 52.9916L149.59 46.8316C149.7 46.6216 149.76 46.5916 149.98 46.5916L150.39 46.5416Z" fill="white"/>
<path d="M36.0493 54.3816V61.6116C36.0493 61.8887 35.9392 62.1545 35.7433 62.3505C35.5473 62.5465 35.2815 62.6566 35.0043 62.6566C34.7272 62.6566 34.4614 62.5465 34.2654 62.3505C34.0694 62.1545 33.9593 61.8887 33.9593 61.6116V54.3916C34.2503 54.604 34.5992 54.7226 34.9593 54.7316C35.352 54.7428 35.7366 54.6193 36.0493 54.3816ZM44.9493 52.2916C44.6841 52.2916 44.4298 52.3969 44.2422 52.5844C44.0547 52.772 43.9493 53.0263 43.9493 53.2916V54.5516C43.9493 54.8287 44.0594 55.0945 44.2554 55.2905C44.4514 55.4865 44.7172 55.5966 44.9943 55.5966C45.2715 55.5966 45.5373 55.4865 45.7333 55.2905C45.9292 55.0945 46.0393 54.8287 46.0393 54.5516V53.3416C46.0471 53.1982 46.0239 53.0548 45.9713 52.9212C45.9187 52.7875 45.838 52.6668 45.7346 52.5672C45.6312 52.4675 45.5075 52.3914 45.372 52.3438C45.2365 52.2962 45.0923 52.2784 44.9493 52.2916ZM31.6893 57.1216C31.3295 57.1108 30.9812 56.9923 30.6893 56.7816V64.0316C30.6893 64.31 30.8 64.5771 30.9969 64.774C31.1938 64.9709 31.4609 65.0816 31.7393 65.0816C32.0178 65.0816 32.2849 64.9709 32.4818 64.774C32.6787 64.5771 32.7893 64.31 32.7893 64.0316V56.8316C32.4628 57.0426 32.0775 57.1442 31.6893 57.1216ZM41.6893 50.1216C41.5539 50.1148 41.4184 50.1356 41.2913 50.1828C41.1641 50.23 41.0479 50.3026 40.9497 50.3962C40.8515 50.4897 40.7733 50.6023 40.7199 50.727C40.6666 50.8517 40.6392 50.9859 40.6393 51.1216V56.6916C40.6393 56.97 40.75 57.2371 40.9469 57.434C41.1438 57.6309 41.4109 57.7416 41.6893 57.7416C41.9678 57.7416 42.2349 57.6309 42.4318 57.434C42.6287 57.2371 42.7393 56.97 42.7393 56.6916V51.1916C42.7473 51.0472 42.7239 50.9029 42.6707 50.7685C42.6176 50.6341 42.5359 50.5128 42.4313 50.413C42.3268 50.3132 42.2018 50.2373 42.0651 50.1904C41.9284 50.1436 41.7831 50.1269 41.6393 50.1416L41.6893 50.1216ZM38.3693 52.2616C37.9927 52.259 37.626 52.1402 37.3193 51.9216V59.1916C37.3193 59.47 37.43 59.7371 37.6269 59.934C37.8238 60.1309 38.0909 60.2416 38.3693 60.2416C38.6478 60.2416 38.9149 60.1309 39.1118 59.934C39.3087 59.7371 39.4193 59.47 39.4193 59.1916V51.9316C39.1021 52.1679 38.7148 52.2911 38.3193 52.2816L38.3693 52.2616ZM29.4193 57.8316V37.5216C29.4167 37.274 29.3165 37.0375 29.1405 36.8633C28.9645 36.6892 28.7269 36.5915 28.4793 36.5916H28.2593C28.0118 36.5915 27.7742 36.6892 27.5982 36.8633C27.4222 37.0375 27.322 37.274 27.3193 37.5216V57.8316C27.3193 58.0809 27.4184 58.32 27.5947 58.4962C27.7709 58.6725 28.01 58.7716 28.2593 58.7716H28.4793C28.7286 58.7716 28.9677 58.6725 29.144 58.4962C29.3203 58.32 29.4193 58.0809 29.4193 57.8316ZM31.7993 56.3516H31.5793C31.33 56.3516 31.0909 56.2525 30.9147 56.0762C30.7384 55.8999 30.6393 55.6609 30.6393 55.4116V39.9416C30.642 39.694 30.7422 39.4575 30.9182 39.2833C31.0942 39.1092 31.3318 39.0115 31.5793 39.0116H31.7993C32.0469 39.0115 32.2845 39.1092 32.4605 39.2833C32.6365 39.4575 32.7367 39.694 32.7393 39.9416V55.4316C32.7393 55.6809 32.6403 55.9199 32.464 56.0962C32.2877 56.2725 32.0486 56.3716 31.7993 56.3716V56.3516ZM35.1093 53.9716H34.8793C34.6327 53.9716 34.3961 53.8736 34.2217 53.6992C34.0473 53.5248 33.9493 53.2882 33.9493 53.0416V42.3416C33.948 42.2186 33.9711 42.0966 34.0172 41.9826C34.0634 41.8686 34.1317 41.7649 34.2182 41.6775C34.3047 41.5901 34.4076 41.5207 34.5211 41.4733C34.6346 41.4259 34.7564 41.4015 34.8793 41.4016H35.1093C35.3569 41.4042 35.5934 41.5044 35.7676 41.6804C35.9417 41.8564 36.0394 42.094 36.0393 42.3416V53.0416C36.0393 53.2882 35.9414 53.5248 35.7669 53.6992C35.5925 53.8736 35.356 53.9716 35.1093 53.9716ZM38.4193 51.5216H38.2093C37.9618 51.5216 37.7242 51.4239 37.5482 51.2498C37.3722 51.0757 37.272 50.8391 37.2693 50.5916V44.8316C37.2611 44.7032 37.2794 44.5744 37.3229 44.4534C37.3665 44.3323 37.4344 44.2215 37.5225 44.1277C37.6106 44.034 37.7171 43.9593 37.8352 43.9084C37.9533 43.8574 38.0807 43.8313 38.2093 43.8316H38.4293C38.6786 43.8316 38.9177 43.9306 39.094 44.1069C39.2703 44.2832 39.3693 44.5222 39.3693 44.7716V50.5716C39.3707 50.6958 39.3473 50.8191 39.3007 50.9343C39.254 51.0496 39.185 51.1544 39.0976 51.2427C39.0102 51.3311 38.9061 51.4012 38.7914 51.4491C38.6767 51.4969 38.5536 51.5216 38.4293 51.5216H38.4193ZM41.7393 49.3716H41.5193C41.27 49.3716 41.0309 49.2725 40.8547 49.0962C40.6784 48.9199 40.5793 48.6809 40.5793 48.4316V46.9416C40.582 46.694 40.6822 46.4575 40.8582 46.2833C41.0342 46.1092 41.2718 46.0115 41.5193 46.0116H41.7393C41.9869 46.0115 42.2245 46.1092 42.4005 46.2833C42.5765 46.4575 42.6767 46.694 42.6793 46.9416V48.4316C42.6794 48.6791 42.5817 48.9167 42.4076 49.0927C42.2334 49.2687 41.9969 49.3689 41.7493 49.3716H41.7393Z" fill="white"/>
</svg>
