<svg width="178" height="101" viewBox="0 0 178 101" fill="none" xmlns="http://www.w3.org/2000/svg">
<path d="M63.9199 44.9015H66.9199V57.0315H63.9199V44.9015ZM68.1099 52.4515C68.1099 49.4515 69.9499 47.6615 72.7899 47.6615C75.6299 47.6615 77.4699 49.4515 77.4699 52.4515C77.4699 55.4515 75.6699 57.2515 72.7899 57.2515C69.9099 57.2515 68.1099 55.5015 68.1099 52.4515ZM74.4599 52.4515C74.4599 50.8015 73.8099 49.8315 72.7899 49.8315C71.7699 49.8315 71.1299 50.8315 71.1299 52.4515C71.1299 54.0715 71.7599 55.0515 72.7899 55.0515C73.8199 55.0515 74.4599 54.1315 74.4599 52.4615V52.4515ZM78.5999 57.6215H81.4799C81.617 57.926 81.8487 58.1781 82.1406 58.3403C82.4325 58.5025 82.769 58.566 83.0999 58.5215C84.2399 58.5215 84.8399 57.9015 84.8399 57.0015V55.3215H84.7799C84.5409 55.8364 84.153 56.2679 83.6664 56.5602C83.1798 56.8525 82.6168 56.9923 82.0499 56.9615C79.8599 56.9615 78.4099 55.2915 78.4099 52.4215C78.4099 49.5515 79.7899 47.7415 82.0899 47.7415C82.6745 47.7186 83.2522 47.8749 83.7454 48.1895C84.2387 48.504 84.6241 48.9618 84.8499 49.5015V47.8315H87.8499V56.9315C87.8499 59.1215 85.9199 60.4815 83.0699 60.4815C80.4199 60.4815 78.7699 59.2915 78.5999 57.6315V57.6215ZM84.8499 52.4415C84.8499 50.9815 84.1799 50.0615 83.1199 50.0615C82.0599 50.0615 81.4099 50.9715 81.4099 52.4415C81.4099 53.9115 82.0499 54.7415 83.1199 54.7415C84.1899 54.7415 84.8499 53.9315 84.8499 52.4515V52.4415ZM88.9799 52.4415C88.9799 49.4415 90.8199 47.6515 93.6599 47.6515C96.4999 47.6515 98.3499 49.4415 98.3499 52.4415C98.3499 55.4415 96.5499 57.2415 93.6599 57.2415C90.7699 57.2415 88.9799 55.5015 88.9799 52.4515V52.4415ZM95.3299 52.4415C95.3299 50.7915 94.6799 49.8215 93.6599 49.8215C92.6399 49.8215 92.0499 50.8315 92.0499 52.4615C92.0499 54.0915 92.6799 55.0615 93.6999 55.0615C94.7199 55.0615 95.3299 54.1315 95.3299 52.4615V52.4415ZM99.4899 45.6515C99.4821 45.3486 99.5643 45.0502 99.7262 44.7941C99.8882 44.5381 100.123 44.3358 100.4 44.213C100.677 44.0903 100.984 44.0525 101.282 44.1046C101.581 44.1566 101.857 44.2962 102.076 44.5054C102.295 44.7147 102.447 44.9843 102.513 45.2801C102.579 45.5759 102.555 45.8846 102.445 46.1669C102.335 46.4493 102.144 46.6926 101.896 46.8661C101.647 47.0396 101.353 47.1355 101.05 47.1415C100.849 47.1553 100.648 47.1275 100.458 47.0597C100.269 46.9919 100.095 46.8856 99.9486 46.7475C99.8021 46.6095 99.6857 46.4427 99.6068 46.2575C99.5279 46.0723 99.4881 45.8728 99.4899 45.6715V45.6515ZM99.4899 47.8515H102.49V57.0315H99.4899V47.8515ZM113.38 52.4415C113.38 55.4415 112.05 57.1515 109.77 57.1515C109.185 57.1891 108.603 57.0462 108.102 56.7421C107.602 56.4381 107.206 55.9876 106.97 55.4515H106.91V59.9715H103.91V47.8315H106.91V49.4715H106.97C107.195 48.9267 107.583 48.4644 108.081 48.1477C108.578 47.831 109.161 47.6752 109.75 47.7015C112.05 47.7415 113.42 49.4615 113.42 52.4615L113.38 52.4415ZM110.38 52.4415C110.38 50.9815 109.71 50.0515 108.66 50.0515C107.61 50.0515 106.94 50.9915 106.93 52.4415C106.92 53.8915 107.61 54.8215 108.66 54.8215C109.71 54.8215 110.38 53.9115 110.38 52.4615V52.4415ZM118.53 47.6415C121.02 47.6415 122.53 48.8215 122.6 50.7115H119.87C119.87 50.0615 119.33 49.6515 118.5 49.6515C117.67 49.6515 117.3 49.9715 117.3 50.4415C117.3 50.9115 117.63 51.0615 118.3 51.2015L120.22 51.5915C122.05 51.9815 122.83 52.7215 122.83 54.1115C122.83 56.0115 121.1 57.2315 118.55 57.2315C116 57.2315 114.33 56.0115 114.2 54.1415H117.09C117.18 54.8215 117.72 55.2215 118.6 55.2215C119.48 55.2215 119.88 54.9315 119.88 54.4515C119.88 53.9715 119.6 53.8715 118.88 53.7215L117.15 53.3515C115.36 52.9815 114.42 52.0315 114.42 50.6315C114.44 48.8315 116.05 47.6615 118.53 47.6615V47.6415ZM132.84 57.0115H129.95V55.3015H129.89C129.731 55.8757 129.381 56.3782 128.897 56.7256C128.413 57.0731 127.825 57.2445 127.23 57.2115C126.774 57.2375 126.318 57.1652 125.893 56.9998C125.467 56.8343 125.082 56.5794 124.764 56.2524C124.445 55.9253 124.2 55.5337 124.046 55.104C123.892 54.6743 123.832 54.2165 123.87 53.7615V47.8315H126.87V53.0715C126.87 54.1615 127.43 54.7415 128.36 54.7415C128.578 54.742 128.794 54.6958 128.992 54.6061C129.191 54.5164 129.368 54.3852 129.512 54.2214C129.656 54.0576 129.764 53.8649 129.827 53.6562C129.89 53.4476 129.908 53.2277 129.88 53.0115V47.8315H132.88L132.84 57.0115ZM134.29 47.8315H137.19V49.6015H137.25C137.409 49.035 137.752 48.5373 138.224 48.1862C138.696 47.8352 139.272 47.6507 139.86 47.6615C140.458 47.6136 141.053 47.7928 141.526 48.1633C141.998 48.5339 142.314 49.0688 142.41 49.6615H142.47C142.651 49.0625 143.027 48.5408 143.537 48.1787C144.048 47.8166 144.665 47.6347 145.29 47.6615C145.698 47.6478 146.104 47.7201 146.482 47.8737C146.861 48.0273 147.202 48.2587 147.485 48.553C147.768 48.8472 147.986 49.1977 148.125 49.5816C148.263 49.9656 148.32 50.3744 148.29 50.7815V57.0315H145.29V51.5815C145.29 50.5815 144.84 50.1215 144 50.1215C143.813 50.12 143.627 50.1586 143.456 50.2348C143.285 50.311 143.132 50.423 143.008 50.5632C142.884 50.7035 142.791 50.8688 142.736 51.0479C142.681 51.227 142.666 51.4158 142.69 51.6015V57.0315H139.84V51.5415C139.84 50.6215 139.39 50.1215 138.57 50.1215C138.38 50.1216 138.193 50.1618 138.02 50.2396C137.848 50.3173 137.693 50.4308 137.568 50.5725C137.442 50.7143 137.348 50.8811 137.291 51.0619C137.235 51.2427 137.217 51.4335 137.24 51.6215V57.0315H134.24L134.29 47.8315Z" fill="white"/>
<path d="M55.5294 45.4515C55.0205 44.2879 54.347 43.2035 53.5294 42.2315C52.3209 40.7519 50.8127 39.5449 49.1041 38.6901C47.3955 37.8354 45.5252 37.3521 43.6164 37.2722C41.7076 37.1923 39.8035 37.5175 38.0294 38.2265C36.2554 38.9355 34.6516 40.0122 33.3236 41.3857C31.9956 42.7591 30.9736 44.3983 30.3247 46.1952C29.6759 47.9922 29.4149 49.9061 29.5591 51.8112C29.7032 53.7162 30.2492 55.5691 31.161 57.248C32.0728 58.9268 33.3299 60.3935 34.8494 61.5515C35.8244 62.3094 36.9018 62.9255 38.0494 63.3815C39.6585 64.0409 41.3805 64.3806 43.1194 64.3815C46.7088 64.3736 50.1486 62.9428 52.6849 60.4029C55.2211 57.8629 56.6468 54.4209 56.6494 50.8315C56.6521 48.9801 56.2707 47.1482 55.5294 45.4515ZM43.1094 40.0215C44.671 40.0214 46.2137 40.3627 47.6294 41.0215C47.2842 41.1707 46.9212 41.2749 46.5494 41.3315C45.326 41.5086 44.1927 42.0766 43.3186 42.9507C42.4445 43.8248 41.8765 44.9581 41.6994 46.1815C41.6217 46.8677 41.3096 47.506 40.8159 47.9887C40.3222 48.4715 39.6771 48.7692 38.9894 48.8315C37.766 49.0086 36.6327 49.5766 35.7586 50.4507C34.8845 51.3248 34.3165 52.4581 34.1394 53.6815C34.0795 54.3339 33.8011 54.947 33.3494 55.4215C32.5701 53.7748 32.22 51.9577 32.3317 50.1393C32.4434 48.3208 33.0133 46.5602 33.9884 45.0213C34.9635 43.4823 36.312 42.2151 37.9085 41.3374C39.505 40.4597 41.2976 40.0002 43.1194 40.0015L43.1094 40.0215ZM34.8394 57.8315C34.9594 57.7215 35.0794 57.6215 35.1994 57.5015C36.0891 56.639 36.6601 55.5004 36.8194 54.2715C36.884 53.5808 37.1924 52.9356 37.6894 52.4515C38.1677 51.9537 38.8114 51.6479 39.4994 51.5915C40.7228 51.4144 41.8561 50.8465 42.7302 49.9724C43.6043 49.0983 44.1723 47.9649 44.3494 46.7415C44.3927 46.0191 44.7027 45.3384 45.2194 44.8315C45.7095 44.3434 46.3593 44.0486 47.0494 44.0015C48.1733 43.8469 49.2215 43.3473 50.0494 42.5715C50.9921 43.3536 51.7908 44.2944 52.4094 45.3515C52.3714 45.4029 52.3278 45.4498 52.2794 45.4915C51.8021 45.9937 51.1592 46.3063 50.4694 46.3715C49.2448 46.5455 48.1097 47.1125 47.2351 47.9872C46.3604 48.8618 45.7934 49.9969 45.6194 51.2215C45.5489 51.91 45.2426 52.5529 44.7524 53.0413C44.2621 53.5297 43.6181 53.8336 42.9294 53.9015C41.7024 54.0773 40.5649 54.6441 39.6857 55.5179C38.8066 56.3916 38.2327 57.5257 38.0494 58.7515C37.9956 59.2403 37.8278 59.7095 37.5594 60.1215C36.5334 59.5124 35.6145 58.7387 34.8394 57.8315ZM43.1094 61.6915C42.0947 61.6926 41.0848 61.5513 40.1094 61.2715C40.4431 60.6495 40.66 59.9717 40.7494 59.2715C40.8195 58.5846 41.1244 57.943 41.6126 57.4547C42.1008 56.9665 42.7425 56.6616 43.4294 56.5915C44.6546 56.4164 45.7902 55.8493 46.6663 54.9751C47.5423 54.1008 48.1118 52.9664 48.2894 51.7415C48.3595 51.0546 48.6644 50.413 49.1526 49.9247C49.6408 49.4365 50.2825 49.1316 50.9694 49.0615C51.8914 48.9416 52.7702 48.5983 53.5294 48.0615C53.951 49.6594 54.0009 51.3327 53.6754 52.9529C53.3499 54.5731 52.6576 56.0972 51.6515 57.4083C50.6455 58.7194 49.3526 59.7826 47.8718 60.5164C46.3911 61.2502 44.762 61.6351 43.1094 61.6415V61.6915Z" fill="white"/>
</svg>
