<svg width="179" height="101" viewBox="0 0 179 101" fill="none" xmlns="http://www.w3.org/2000/svg">
<path d="M39.2568 55.6216H42.2568V70.3316H39.2568V55.6216Z" fill="white"/>
<path d="M43.9963 65.2915C43.9944 64.235 44.3059 63.2015 44.8914 62.3221C45.477 61.4426 46.3103 60.7566 47.2859 60.3509C48.2614 59.9452 49.3355 59.838 50.372 60.0429C51.4085 60.2478 52.3609 60.7556 53.1087 61.502C53.8565 62.2485 54.3661 63.1999 54.573 64.2361C54.7798 65.2722 54.6747 66.3464 54.2708 67.3227C53.8669 68.2991 53.1825 69.1337 52.3041 69.7209C51.4257 70.3081 50.3929 70.6215 49.3363 70.6215C48.6337 70.6295 47.9365 70.4972 47.2857 70.2323C46.6348 69.9674 46.0434 69.5753 45.5461 69.0789C45.0487 68.5825 44.6555 67.9918 44.3894 67.3415C44.1233 66.6911 43.9896 65.9942 43.9963 65.2915ZM51.6563 65.2915C51.6445 64.8354 51.4985 64.3929 51.2365 64.0194C50.9745 63.6458 50.6082 63.3578 50.1834 63.1914C49.7585 63.025 49.2941 62.9875 48.8481 63.0837C48.4021 63.1798 47.9943 63.4054 47.6758 63.7321C47.3573 64.0588 47.1423 64.4722 47.0575 64.9205C46.9727 65.3689 47.0221 65.8322 47.1993 66.2527C47.3765 66.6731 47.6738 67.0319 48.0539 67.2843C48.434 67.5367 48.8801 67.6714 49.3363 67.6715C49.6485 67.6803 49.9591 67.6242 50.2485 67.5069C50.5379 67.3896 50.7999 67.2136 51.0179 66.9899C51.2359 66.7663 51.4052 66.4999 51.515 66.2076C51.6249 65.9153 51.673 65.6034 51.6563 65.2915Z" fill="white"/>
<path d="M66.7366 60.2515V69.8315C66.7366 73.2215 64.0866 74.6515 61.4066 74.6515C60.4641 74.7216 59.5206 74.5311 58.6793 74.1007C57.8379 73.6703 57.1312 73.0168 56.6366 72.2115L59.2166 70.7215C59.4213 71.1342 59.7452 71.4759 60.1464 71.7023C60.5476 71.9288 61.0075 72.0295 61.4666 71.9916C61.7687 72.0419 62.0783 72.0222 62.3716 71.9339C62.6649 71.8457 62.934 71.6913 63.1582 71.4825C63.3824 71.2738 63.5556 71.0164 63.6645 70.7302C63.7735 70.4439 63.8152 70.1365 63.7866 69.8315V68.9015C63.4338 69.3355 62.9838 69.6802 62.4731 69.9078C61.9623 70.1354 61.4051 70.2394 60.8466 70.2115C59.4887 70.2115 58.1864 69.6721 57.2262 68.7119C56.266 67.7517 55.7266 66.4495 55.7266 65.0916C55.7266 63.7336 56.266 62.4313 57.2262 61.4712C58.1864 60.511 59.4887 59.9715 60.8466 59.9715C61.4048 59.946 61.9612 60.0512 62.4716 60.2786C62.982 60.506 63.4323 60.8495 63.7866 61.2815V60.2815L66.7366 60.2515ZM63.7866 65.0916C63.8065 64.6052 63.6805 64.124 63.4248 63.7098C63.1691 63.2956 62.7954 62.9674 62.3517 62.7673C61.908 62.5672 61.4145 62.5043 60.9348 62.5869C60.4551 62.6694 60.0111 62.8936 59.6597 63.2305C59.3084 63.5674 59.0659 64.0017 58.9634 64.4775C58.8608 64.9534 58.903 65.449 59.0843 65.9007C59.2657 66.3524 59.578 66.7396 59.9812 67.0124C60.3843 67.2852 60.8598 67.4311 61.3466 67.4315C61.6643 67.454 61.9832 67.4097 62.2827 67.3014C62.5822 67.1931 62.8558 67.0233 63.0856 66.8028C63.3155 66.5823 63.4967 66.3162 63.6174 66.0214C63.7381 65.7267 63.7957 65.4099 63.7866 65.0916Z" fill="white"/>
<path d="M68.467 65.2915C68.4651 64.235 68.7766 63.2015 69.3621 62.3221C69.9477 61.4426 70.781 60.7566 71.7566 60.3509C72.7322 59.9452 73.8062 59.838 74.8427 60.0429C75.8792 60.2478 76.8316 60.7556 77.5794 61.502C78.3273 62.2485 78.8368 63.1999 79.0437 64.2361C79.2505 65.2722 79.1454 66.3464 78.7415 67.3227C78.3376 68.2991 77.6532 69.1337 76.7748 69.7209C75.8964 70.3081 74.8636 70.6215 73.807 70.6215C73.1044 70.6295 72.4072 70.4972 71.7564 70.2323C71.1055 69.9674 70.5141 69.5753 70.0168 69.0789C69.5194 68.5825 69.1262 67.9918 68.8601 67.3415C68.594 66.6911 68.4603 65.9942 68.467 65.2915ZM76.127 65.2915C76.1152 64.8354 75.9692 64.3929 75.7072 64.0194C75.4452 63.6458 75.0789 63.3578 74.6541 63.1914C74.2293 63.025 73.7648 62.9875 73.3188 63.0837C72.8728 63.1798 72.465 63.4054 72.1465 63.7321C71.828 64.0588 71.613 64.4722 71.5282 64.9205C71.4434 65.3689 71.4927 65.8322 71.67 66.2527C71.8472 66.6731 72.1445 67.0319 72.5246 67.2843C72.9047 67.5367 73.3508 67.6714 73.807 67.6715C74.1175 67.6775 74.4259 67.6193 74.713 67.5008C75 67.3822 75.2596 67.2058 75.4754 66.9825C75.6912 66.7591 75.8587 66.4937 75.9674 66.2028C76.076 65.9119 76.1236 65.6017 76.107 65.2915H76.127Z" fill="white"/>
<path d="M80.5371 57.5515C80.5371 57.1916 80.6438 56.8397 80.8438 56.5404C81.0438 56.2411 81.3281 56.0078 81.6606 55.8701C81.9932 55.7323 82.3591 55.6963 82.7122 55.7665C83.0652 55.8367 83.3895 56.0101 83.644 56.2646C83.8986 56.5191 84.0719 56.8434 84.1421 57.1965C84.2124 57.5495 84.1763 57.9155 84.0386 58.248C83.9008 58.5806 83.6675 58.8648 83.3682 59.0648C83.069 59.2648 82.7171 59.3715 82.3571 59.3715C81.8752 59.3689 81.4138 59.1763 81.0731 58.8356C80.7323 58.4948 80.5397 58.0334 80.5371 57.5515ZM80.8471 60.2515H83.8471V70.3315H80.8471V60.2515Z" fill="white"/>
<path d="M96.9272 65.2915C96.9636 65.9578 96.8678 66.6248 96.6454 67.2539C96.4229 67.883 96.0783 68.462 95.6312 68.9574C95.1842 69.4528 94.6435 69.8548 94.0404 70.1405C93.4373 70.4261 92.7837 70.5896 92.1172 70.6215C91.5576 70.6484 90.999 70.5522 90.4806 70.3397C89.9623 70.1271 89.4968 69.8035 89.1172 69.3915V74.3915H86.1172V60.2515H89.1172V61.2015C89.4968 60.7896 89.9623 60.4659 90.4806 60.2534C90.999 60.0409 91.5576 59.9447 92.1172 59.9715C92.7828 60.0035 93.4356 60.1667 94.038 60.4517C94.6404 60.7367 95.1806 61.1378 95.6275 61.6322C96.0745 62.1265 96.4193 62.7042 96.6424 63.3322C96.8654 63.9602 96.9622 64.626 96.9272 65.2915ZM93.9272 65.2915C93.9153 64.8222 93.766 64.3666 93.4978 63.9813C93.2296 63.5959 92.8543 63.2977 92.4183 63.1235C91.9822 62.9494 91.5047 62.9069 91.0448 63.0014C90.585 63.0959 90.1629 63.3233 89.8309 63.6553C89.4989 63.9872 89.2716 64.4093 89.1771 64.8692C89.0826 65.3291 89.125 65.8066 89.2992 66.2426C89.4734 66.6786 89.7716 67.0539 90.1569 67.3222C90.5423 67.5904 90.9978 67.7396 91.4672 67.7515C91.7947 67.7724 92.1229 67.7228 92.4298 67.6063C92.7366 67.4897 93.0149 67.3089 93.2461 67.0759C93.4772 66.8428 93.6558 66.563 93.7698 66.2553C93.8838 65.9475 93.9307 65.6189 93.9072 65.2915H93.9272Z" fill="white"/>
<path d="M106.266 67.3115C106.266 69.6315 104.266 70.6215 102.066 70.6215C101.187 70.6993 100.305 70.5124 99.5338 70.0846C98.7621 69.6569 98.1361 69.008 97.7363 68.2215L100.356 66.7315C100.463 67.0953 100.69 67.4117 101.001 67.6282C101.312 67.8447 101.688 67.9482 102.066 67.9215C102.796 67.9215 103.156 67.6915 103.156 67.2915C103.156 66.1815 98.1563 66.7715 98.1563 63.2915C98.1563 61.0915 100.016 59.9815 102.156 59.9815C102.946 59.9575 103.728 60.1452 104.421 60.5249C105.113 60.9047 105.692 61.4629 106.096 62.1415L103.466 63.5215C103.35 63.2574 103.16 63.0328 102.918 62.8748C102.677 62.7168 102.395 62.6323 102.106 62.6315C101.586 62.6315 101.266 62.8315 101.266 63.2015C101.306 64.3515 106.266 63.5815 106.266 67.3115Z" fill="white"/>
<path d="M117.307 60.2515V70.3315H114.307V69.3915C113.958 69.8092 113.515 70.1384 113.015 70.3521C112.514 70.5659 111.97 70.6582 111.427 70.6215C109.427 70.6215 107.657 69.1715 107.657 66.4415V60.2515H110.657V66.0015C110.631 66.2466 110.659 66.4944 110.741 66.7271C110.822 66.9597 110.954 67.1713 111.127 67.3465C111.301 67.5218 111.511 67.6562 111.743 67.7401C111.974 67.824 112.222 67.8552 112.467 67.8315C113.567 67.8315 114.337 67.1915 114.337 65.7615V60.2515H117.307Z" fill="white"/>
<path d="M134.647 64.1516V70.3316H131.647V64.4116C131.647 63.4116 131.157 62.7516 130.197 62.7516C129.237 62.7516 128.617 63.4616 128.617 64.6516V70.3316H125.617V64.4116C125.617 63.4116 125.137 62.7516 124.167 62.7516C123.197 62.7516 122.597 63.4616 122.597 64.6516V70.3316H119.597V60.2516H122.597V61.1816C122.91 60.7708 123.321 60.445 123.793 60.2337C124.265 60.0223 124.781 59.9322 125.297 59.9716C125.814 59.9464 126.329 60.0557 126.792 60.2888C127.255 60.5219 127.649 60.8708 127.937 61.3016C128.271 60.8512 128.715 60.493 129.225 60.2604C129.736 60.0278 130.297 59.9284 130.857 59.9716C133.137 59.9716 134.647 61.6316 134.647 64.1516Z" fill="white"/>
<path d="M137.207 60.1915C138.444 60.1915 139.447 59.1887 139.447 57.9515C139.447 56.7144 138.444 55.7115 137.207 55.7115C135.97 55.7115 134.967 56.7144 134.967 57.9515C134.967 59.1887 135.97 60.1915 137.207 60.1915Z" fill="white"/>
<path d="M73.2068 47.9915C79.0003 47.9915 83.6968 43.295 83.6968 37.5015C83.6968 31.7081 79.0003 27.0115 73.2068 27.0115C67.4133 27.0115 62.7168 31.7081 62.7168 37.5015C62.7168 43.295 67.4133 47.9915 73.2068 47.9915Z" fill="white"/>
<path d="M96.657 47.9915C102.45 47.9915 107.147 43.295 107.147 37.5015C107.147 31.7081 102.45 27.0115 96.657 27.0115C90.8635 27.0115 86.167 31.7081 86.167 37.5015C86.167 43.295 90.8635 47.9915 96.657 47.9915Z" fill="white"/>
<path d="M60.2464 27.0115H39.2764V47.9815H60.2464V27.0115Z" fill="white"/>
</svg>
