<svg width="179" height="101" viewBox="0 0 179 101" fill="none" xmlns="http://www.w3.org/2000/svg">
<path d="M89.1618 56.2055H84.0417V42.5175H89.1618V56.2055ZM84.5417 55.7055H88.6618V43.0175H84.5417V55.7055ZM96.2858 56.2055H91.2688V42.5175H101.751C103.252 42.3959 104.748 42.8175 105.965 43.7055C106.489 44.1848 106.895 44.7787 107.151 45.4408C107.408 46.1029 107.508 46.8154 107.444 47.5225C107.519 48.7445 107.13 49.9497 106.355 50.8975C105.438 51.9495 103.912 52.4915 101.82 52.5105C101.293 52.5245 97.3438 52.5105 96.2887 52.5105L96.2858 56.2055ZM91.7657 55.7055H95.7858V52.0055H96.0368C96.0878 52.0055 101.215 52.0215 101.808 52.0055C103.757 51.9885 105.158 51.5055 105.977 50.5625C106.667 49.705 107.009 48.6197 106.937 47.5215C106.998 46.8879 106.913 46.2486 106.688 45.6533C106.462 45.0579 106.103 44.5225 105.637 44.0885C104.508 43.2786 103.128 42.8985 101.744 43.0165H91.7688L91.7657 55.7055ZM100.689 49.4355H95.7517V45.7095H100.722C101.074 45.6608 101.433 45.702 101.765 45.8291C102.097 45.9562 102.392 46.1651 102.622 46.4365C102.83 46.7835 102.929 47.1855 102.904 47.5895C102.923 47.9646 102.841 48.338 102.669 48.6715C102.432 48.9574 102.125 49.1775 101.778 49.3106C101.431 49.4437 101.056 49.4853 100.689 49.4315V49.4355ZM96.2517 48.9355H100.689C101.509 48.9355 102.017 48.7645 102.242 48.4125C102.366 48.1567 102.422 47.8733 102.405 47.5895C102.427 47.2916 102.362 46.9937 102.219 46.7315L102.213 46.7225C101.975 46.3725 101.502 46.2095 100.722 46.2095H96.2517V48.9355ZM116.569 56.4075C112.079 56.4075 109.399 55.2925 108.378 52.9995C108.211 52.5566 108.097 52.0954 108.04 51.6255L107.996 51.3375H113.338L113.373 51.5475C113.414 51.7608 113.504 51.9614 113.637 52.1335C113.848 52.3885 114.552 52.8165 116.888 52.8165C119.696 52.8165 119.696 52.3235 119.696 52.0585C119.696 51.6115 119.371 51.4585 117.081 51.2145L116.646 51.1735C115.784 51.0925 114.694 50.9895 114.196 50.9465C109.996 50.5665 108.121 49.2615 108.121 46.7165C108.121 44.0435 111.312 42.3165 116.251 42.3165C120.28 42.3165 122.876 43.3785 123.965 45.4755C124.223 45.9633 124.397 46.4915 124.478 47.0375L124.513 47.3185H119.165L119.143 47.0925C119.122 46.9159 119.046 46.7502 118.927 46.6185C118.727 46.3505 118.095 45.9075 116.133 45.9075C113.724 45.9075 113.392 46.2155 113.392 46.5475C113.392 46.9905 114.153 47.1475 116.592 47.4085C117.609 47.4915 119.244 47.6595 119.804 47.7275C123.325 48.1095 124.896 49.3825 124.896 51.8565C124.897 53.9315 123.452 56.4075 116.569 56.4075ZM108.58 51.8375C108.63 52.1673 108.716 52.4906 108.837 52.8015C109.767 54.8905 112.297 55.9075 116.569 55.9075C120.141 55.9075 124.4 55.2075 124.4 51.8565C124.4 49.6635 123.01 48.5775 119.751 48.2245C119.191 48.1565 117.566 47.9895 116.551 47.9055C113.951 47.6235 112.894 47.4735 112.894 46.5475C112.894 45.5895 114.033 45.4075 116.135 45.4075C117.796 45.4075 118.869 45.7075 119.324 46.3125C119.448 46.4616 119.542 46.6335 119.6 46.8185H123.934C123.847 46.4318 123.709 46.0582 123.524 45.7075C122.524 43.7885 120.081 42.8165 116.253 42.8165C111.618 42.8165 108.623 44.3475 108.623 46.7165C108.623 48.9765 110.304 50.0925 114.242 50.4485C114.742 50.4915 115.831 50.5945 116.695 50.6765L117.133 50.7175C119.26 50.9415 120.198 51.0815 120.198 52.0585C120.198 53.1105 118.985 53.3165 116.89 53.3165C114.952 53.3165 113.728 53.0255 113.255 52.4525C113.109 52.2698 112.999 52.0611 112.931 51.8375H108.58ZM134.396 56.3905C129.176 56.3905 126.296 54.2795 126.296 50.4455V42.5175H131.348V50.4455C131.348 51.7605 132.525 52.5145 134.576 52.5145C136.536 52.5145 137.753 51.7275 137.753 50.4625V42.5175H142.753V50.8655C142.758 54.3765 139.709 56.3905 134.393 56.3905H134.396ZM126.796 43.0175V50.4455C126.796 55.1835 131.554 55.8905 134.396 55.8905C137.334 55.8905 142.261 55.2375 142.261 50.8655V43.0175H138.261V50.4625C138.261 52.0125 136.817 53.0145 134.584 53.0145C132.25 53.0145 130.856 52.0545 130.856 50.4455V43.0175H126.796ZM163.941 56.2055H159.173V50.0255L156.469 56.2055H152.31L149.634 50.0375V56.2055H144.849V42.5175H151.143L154.413 50.0645L157.841 42.5175H163.947L163.941 56.2055ZM159.673 55.7055H163.441V43.0175H158.159L154.397 51.2965L150.811 43.0175H145.345V55.7055H149.13V47.6315L152.63 55.7085H156.13L159.667 47.6435L159.673 55.7055ZM19.5228 42.7675H14.9688V55.9555H27.5527V52.4445H19.5228V42.7675ZM36.7448 42.4675C30.9318 42.4675 27.8748 45.2225 27.8748 49.2675C27.8748 53.8375 31.0838 56.1555 36.7448 56.1555C42.9768 56.1555 45.5978 53.4675 45.5978 49.2675C45.5978 45.0025 42.6408 42.4655 36.7448 42.4655V42.4675ZM36.7277 45.8945C37.1235 45.8927 37.5189 45.9157 37.9118 45.9635L32.8208 51.0545C32.5798 50.5096 32.4623 49.9182 32.4767 49.3225C32.4767 47.2535 33.5187 45.8925 36.7277 45.8925V45.8945ZM36.7448 52.7825C36.3635 52.7842 35.9824 52.7628 35.6037 52.7185L40.7038 47.6185C40.9357 48.1544 41.0467 48.7349 41.0288 49.3185C41.0288 51.3315 40.0688 52.7805 36.7448 52.7805V52.7825ZM54.6208 50.9825H59.3078C59.2388 51.3078 59.095 51.6125 58.8877 51.8725C57.9161 52.6642 56.6759 53.0494 55.4268 52.9475C54.798 53.0148 54.1621 52.9461 53.5622 52.7462C52.9623 52.5462 52.4124 52.2196 51.9497 51.7885C51.4759 51.0934 51.2507 50.2586 51.3107 49.4195C51.2341 48.5403 51.4789 47.663 51.9997 46.9505C52.6547 46.2105 53.7637 45.8915 55.3937 45.8915C56.4309 45.8057 57.4667 46.072 58.3338 46.6475C58.607 46.8646 58.8113 47.1564 58.9217 47.4875H63.2687C63.2371 46.942 63.106 46.4069 62.8817 45.9085C61.8407 43.7915 59.4208 42.5315 55.3058 42.5315C51.7268 42.5315 49.3247 43.6235 47.9977 45.2705C47.1213 46.4599 46.6715 47.91 46.7207 49.3865C46.6641 50.8965 47.1023 52.3836 47.9688 53.6215C49.2798 55.3215 51.6147 56.1575 54.4207 56.1575C56.2863 56.2876 58.139 55.7651 59.6618 54.6795L59.7798 55.9555H63.3908V48.1435H54.6208V50.9825ZM73.6397 42.4645C67.8277 42.4645 64.7698 45.2195 64.7698 49.2645C64.7698 53.8345 67.9777 56.1525 73.6397 56.1525C79.8727 56.1525 82.4938 53.4645 82.4938 49.2645C82.4938 45.0025 79.5368 42.4655 73.6397 42.4655V42.4645ZM73.6237 45.8915C74.0091 45.8904 74.3941 45.9124 74.7767 45.9575L69.7057 51.0315C69.4724 50.4927 69.3588 49.9096 69.3727 49.3225C69.3687 47.2535 70.4147 45.8925 73.6237 45.8925V45.8915ZM73.6397 52.7795C73.2484 52.7812 72.8573 52.7585 72.4688 52.7115L77.5857 47.5935C77.8264 48.1366 77.9416 48.7268 77.9228 49.3205C77.9248 51.3315 76.9687 52.7805 73.6397 52.7805V52.7795Z" fill="white"/>
</svg>
