<svg width="179" height="101" viewBox="0 0 179 101" fill="none" xmlns="http://www.w3.org/2000/svg">
<path d="M32.5107 63.6565H58.1607V38.0065H32.5107V63.6565ZM53.2237 48.3635H47.8037V42.9435H53.2237V48.3635ZM37.4467 42.9435H42.8697V53.2995H53.2237V58.7195H37.4467V42.9435ZM74.8637 38.0065C72.3272 38.0065 69.8476 38.7587 67.7385 40.1679C65.6295 41.5772 63.9857 43.5802 63.015 45.9236C62.0443 48.2671 61.7903 50.8458 62.2852 53.3336C62.78 55.8214 64.0015 58.1066 65.7951 59.9002C67.5887 61.6938 69.8739 62.9153 72.3617 63.4101C74.8495 63.905 77.4282 63.651 79.7717 62.6803C82.1151 61.7096 84.1181 60.0658 85.5273 57.9567C86.9366 55.8477 87.6887 53.3681 87.6887 50.8315C87.6848 47.4314 86.3323 44.1716 83.928 41.7673C81.5237 39.363 78.2639 38.0105 74.8637 38.0065ZM74.8637 58.7195C73.3036 58.7195 71.7786 58.2569 70.4814 57.3902C69.1842 56.5234 68.1732 55.2915 67.5762 53.8502C66.9792 52.4088 66.8229 50.8228 67.1273 49.2927C67.4317 47.7626 68.1829 46.357 69.2861 45.2539C70.3892 44.1507 71.7947 43.3995 73.3249 43.0951C74.855 42.7908 76.441 42.947 77.8823 43.544C79.3237 44.141 80.5556 45.152 81.4224 46.4492C82.2891 47.7464 82.7517 49.2714 82.7517 50.8315C82.7486 52.9226 81.9165 54.9271 80.4379 56.4057C78.9593 57.8843 76.9548 58.7164 74.8637 58.7195ZM133.583 38.0065C131.046 38.0063 128.566 38.7584 126.457 40.1675C124.348 41.5766 122.704 43.5795 121.733 45.9229C120.762 48.2664 120.508 50.8451 121.003 53.333C121.498 55.8208 122.719 58.1061 124.513 59.8998C126.306 61.6935 128.592 62.9151 131.079 63.41C133.567 63.905 136.146 63.6511 138.489 62.6804C140.833 61.7097 142.836 60.0659 144.245 57.9568C145.655 55.8478 146.407 53.3681 146.407 50.8315C146.403 47.4315 145.05 44.1719 142.646 41.7676C140.242 39.3634 136.983 38.0108 133.583 38.0065ZM133.583 58.7195C132.023 58.7197 130.497 58.2573 129.2 57.3907C127.903 56.524 126.892 55.2922 126.294 53.8508C125.697 52.4095 125.541 50.8235 125.845 49.2933C126.149 47.7631 126.901 46.3575 128.004 45.2542C129.107 44.151 130.512 43.3996 132.043 43.0952C133.573 42.7907 135.159 42.9469 136.6 43.5439C138.042 44.1409 139.274 45.1519 140.14 46.4491C141.007 47.7463 141.47 49.2714 141.47 50.8315C141.467 52.9224 140.635 54.9268 139.156 56.4053C137.678 57.8839 135.674 58.7161 133.583 58.7195ZM104.223 38.0065C101.686 38.0065 99.2066 38.7587 97.0975 40.1679C94.9885 41.5772 93.3447 43.5802 92.374 45.9236C91.4033 48.2671 91.1493 50.8458 91.6442 53.3336C92.139 55.8214 93.3605 58.1066 95.1541 59.9002C96.9477 61.6938 99.2329 62.9153 101.721 63.4101C104.209 63.905 106.787 63.651 109.131 62.6803C111.474 61.7096 113.477 60.0658 114.886 57.9567C116.296 55.8477 117.048 53.3681 117.048 50.8315C117.044 47.4314 115.691 44.1716 113.287 41.7673C110.883 39.363 107.623 38.0105 104.223 38.0065ZM104.223 58.7195C102.769 58.7203 101.344 58.3194 100.104 57.5611C98.8636 56.8028 97.8572 55.7166 97.1955 54.4224C96.5338 53.1282 96.2426 51.6764 96.354 50.2271C96.4653 48.7779 96.975 47.3876 97.8267 46.2097C98.6784 45.0318 99.8389 44.1122 101.18 43.5522C102.522 42.9923 103.992 42.814 105.428 43.0368C106.864 43.2596 108.211 43.875 109.32 44.815C110.429 45.7549 111.256 46.983 111.711 48.3635H104.223V53.2995H111.711C111.19 54.8749 110.186 56.2462 108.842 57.2191C107.498 58.1919 105.882 58.7169 104.223 58.7195Z" fill="white"/>
</svg>
