<svg width="21" height="21" viewBox="0 0 21 21" fill="none" xmlns="http://www.w3.org/2000/svg">
<g clip-path="url(#clip0)">
<path d="M20.9258 4.08977C20.182 4.41602 19.3895 4.63227 18.5633 4.73727C19.4133 4.22977 20.0621 3.43227 20.3671 2.47102C19.5746 2.94352 18.6995 3.27727 17.767 3.46352C17.0145 2.66227 15.942 2.16602 14.772 2.16602C12.502 2.16602 10.6745 4.00852 10.6745 6.26727C10.6745 6.59227 10.702 6.90477 10.7695 7.20227C7.36078 7.03602 4.34453 5.40227 2.31828 2.91352C1.96453 3.52727 1.75703 4.22977 1.75703 4.98602C1.75703 6.40602 2.48828 7.66477 3.57828 8.39352C2.91953 8.38102 2.27328 8.18977 1.72578 7.88852C1.72578 7.90102 1.72578 7.91727 1.72578 7.93352C1.72578 9.92602 3.14703 11.581 5.01078 11.9622C4.67703 12.0535 4.31328 12.0972 3.93578 12.0972C3.67328 12.0972 3.40828 12.0822 3.15953 12.0272C3.69078 13.651 5.19828 14.8447 6.99078 14.8835C5.59578 15.9747 3.82453 16.6322 1.90703 16.6322C1.57078 16.6322 1.24828 16.6172 0.925781 16.576C2.74203 17.7472 4.89453 18.416 7.21578 18.416C14.7608 18.416 18.8858 12.166 18.8858 6.74852C18.8858 6.56727 18.8795 6.39227 18.8708 6.21852C19.6845 5.64102 20.3683 4.91977 20.9258 4.08977Z" fill="white"/>
</g>
<defs>
<clipPath id="clip0">
<rect width="20" height="20" fill="white" transform="translate(0.925781 0.291016)"/>
</clipPath>
</defs>
</svg>
